<svg width="16" height="15" viewBox="0 0 16 15" fill="none" xmlns="http://www.w3.org/2000/svg">
<g clip-path="url(#clip0_330_89)">
<path d="M9.04782 9.74836C9.04782 6.79105 9.04782 3.94096 9.04782 1.08993C9.04782 0.404205 8.64075 -0.0116683 8.00419 0.00126989C7.76672 -0.0044267 7.53589 0.0782678 7.35831 0.232648C7.18073 0.387028 7.06962 0.60159 7.04744 0.833012C7.02947 1.00091 7.02285 1.16977 7.02761 1.33852C7.02761 3.94465 7.02761 6.55109 7.02761 9.15783V9.78349L5.08959 7.94995C4.84215 7.71614 4.60604 7.46756 4.34443 7.24945C3.95815 6.92877 3.49441 6.97774 3.13363 7.35202C2.77285 7.72631 2.76152 8.13387 3.13363 8.48967C4.57865 9.87344 6.03091 11.2492 7.49041 12.6169C7.5628 12.6881 7.64883 12.7445 7.74356 12.783C7.8383 12.8215 7.93986 12.8413 8.04244 12.8413C8.14502 12.8413 8.24659 12.8215 8.34132 12.783C8.43605 12.7445 8.52208 12.6881 8.59447 12.6169C10.0527 11.2258 11.5009 9.82569 12.939 8.41665C13.3064 8.05623 13.2601 7.65423 12.8776 7.28641C12.479 6.90289 12.0417 6.88533 11.6366 7.26886C10.881 7.98323 10.1405 8.71146 9.39348 9.43323C9.30848 9.51733 9.21687 9.59587 9.04782 9.74836Z" fill="white"/>
<path d="M1.51109 9.40137H0.0348995C0.0348995 10.4762 -0.0595468 11.538 0.0575655 12.5786C0.209623 13.9529 1.43552 14.9639 2.89093 14.9768C6.29096 15.0058 9.68881 15.0058 13.0844 14.9768C14.7627 14.9602 15.982 13.683 15.9952 12.0426C16.0018 11.173 15.9952 10.3024 15.9952 9.40507H14.5181C14.5087 9.52428 14.4907 9.6546 14.4907 9.78491C14.4907 10.5667 14.4992 11.3486 14.4907 12.1295C14.4784 12.9252 13.8787 13.5342 13.0646 13.537C9.6822 13.5468 6.29978 13.5468 2.91738 13.537C2.12309 13.537 1.53093 12.9381 1.51677 12.16C1.49882 11.2571 1.51109 10.3551 1.51109 9.40137Z" fill="white"/>
</g>
<defs>
<clipPath id="clip0_330_89">
<rect width="16" height="15" fill="white" transform="matrix(-1 0 0 1 16 0)"/>
</clipPath>
</defs>
</svg>
