<svg width="19" height="19" viewBox="0 0 19 19" fill="none" xmlns="http://www.w3.org/2000/svg">
<circle cx="9.5" cy="9.5" r="9.5" fill="white"/>
<g clip-path="url(#clip0_171_2192)">
<path d="M12.6623 5.50293C13.5034 5.50293 13.5166 5.50294 13.4901 6.1069C13.472 6.98934 13.259 7.85696 12.8664 8.64811C12.4738 9.43926 11.9112 10.1345 11.2185 10.6845C11.128 10.7524 11.0657 10.851 11.0431 10.9617C10.957 12.3313 10.1789 13.2026 8.8014 13.4501C8.68608 13.4825 8.56687 13.4992 8.44707 13.4996C8.39684 13.4961 8.34777 13.4827 8.30285 13.46C8.25792 13.4373 8.21803 13.4059 8.18547 13.3676C8.15566 13.3214 8.22853 13.1828 8.28813 13.1168C8.44376 12.9353 8.61925 12.7868 8.77819 12.5953C9.08283 12.1828 9.04971 11.9023 8.68878 11.5425L7.38748 10.2224C7.29797 10.0999 7.16353 10.0176 7.01343 9.99353C6.86333 9.96942 6.70969 10.0054 6.5861 10.0937C6.34684 10.2697 6.117 10.4581 5.89742 10.658C5.80545 10.7156 5.70635 10.7611 5.60267 10.7934C5.54981 10.6982 5.51499 10.5942 5.5 10.4864C5.5894 9.16629 6.36762 8.2224 7.56299 7.97818H7.58611C8.07618 8.04088 8.3345 7.72736 8.6292 7.40392C9.13959 6.83415 9.75955 6.3723 10.4523 6.04576C11.1451 5.71922 11.8966 5.53463 12.6623 5.50293ZM12.6291 8.1828C12.5861 8.13329 12.5398 8.07389 12.4868 8.02108C11.9868 7.51943 11.4934 7.03098 10.9901 6.51283C10.9453 6.45352 10.8789 6.41409 10.8052 6.40299C10.7315 6.39188 10.6565 6.40999 10.5961 6.45343C9.22962 7.12254 8.17673 8.29378 7.65895 9.72076C7.64743 9.76101 7.64534 9.80335 7.6528 9.84454C7.66026 9.88574 7.67712 9.92468 7.70204 9.95838C8.14243 10.4138 8.58945 10.8594 9.02654 11.3016C9.05667 11.3249 9.09164 11.3411 9.12888 11.3491C9.16613 11.3571 9.20468 11.3566 9.24174 11.3478C10.6988 10.8198 11.8885 9.74072 12.553 8.34451L12.6291 8.1828ZM13.1325 5.91547C12.5099 5.89052 11.8881 5.98002 11.298 6.17949L12.8511 7.70755L13.1325 5.91547ZM9.36098 11.7669C9.40008 11.9734 9.39339 12.1858 9.34133 12.3893C9.28928 12.5929 9.19307 12.7826 9.0596 12.9452C9.93046 12.7769 10.659 11.9023 10.5928 11.1498L9.36098 11.7669ZM6.02983 9.96829C6.18967 9.82345 6.38143 9.7181 6.58966 9.66077C6.79789 9.60344 7.01678 9.59573 7.22855 9.63825C7.33451 9.41713 7.42719 9.2092 7.52984 9.00458C7.63249 8.79995 7.74176 8.60194 7.86097 8.39402C7.42239 8.41227 7.00289 8.5777 6.6705 8.86347C6.33811 9.14923 6.11232 9.53857 6.02983 9.96829Z" fill="black"/>
<path d="M6.05629 13.1862C6.01946 13.1895 5.98241 13.183 5.94885 13.1676C5.91528 13.1522 5.88636 13.1282 5.86493 13.0982C5.84351 13.0682 5.83031 13.0331 5.8267 12.9964C5.82309 12.9598 5.82916 12.9228 5.84432 12.8892C5.87181 12.8462 5.90527 12.8073 5.94367 12.7737L7.38742 11.3248C7.49007 11.2225 7.59927 11.1268 7.73504 11.2621C7.8708 11.3974 7.7781 11.5063 7.67546 11.612L6.22848 13.0575C6.17521 13.1056 6.11756 13.1487 6.05629 13.1862Z" fill="black"/>
<path d="M7.16887 10.7208C7.12652 10.7906 7.08011 10.8578 7.02982 10.9222C6.79804 11.1565 6.5629 11.3875 6.33111 11.6251C6.22846 11.7274 6.09601 11.7802 5.99999 11.6515C5.98207 11.6019 5.97634 11.5488 5.98325 11.4965C5.99017 11.4443 6.00956 11.3945 6.03976 11.3512C6.26465 11.0974 6.5034 10.8561 6.75496 10.6284C6.82473 10.5747 6.9121 10.5488 6.99999 10.5558C7.0596 10.5657 7.10596 10.6548 7.16887 10.7208Z" fill="black"/>
<path d="M7.44702 13.0709C7.40066 13.0346 7.3179 13.0016 7.30797 12.9521C7.29695 12.9135 7.29418 12.8729 7.29988 12.8331C7.30559 12.7933 7.31959 12.7552 7.34103 12.7211C7.59269 12.4472 7.85432 12.1799 8.13247 11.929C8.17173 11.9064 8.21623 11.8945 8.26157 11.8945C8.30691 11.8945 8.35149 11.9064 8.39076 11.929C8.41343 11.9682 8.42536 12.0125 8.42536 12.0577C8.42536 12.1029 8.41343 12.1473 8.39076 12.1865C8.13579 12.467 7.8609 12.7343 7.58606 13.0016C7.54321 13.0312 7.49642 13.0545 7.44702 13.0709Z" fill="black"/>
<path d="M11.5331 8.49627C11.5306 8.77244 11.4203 9.03678 11.2256 9.2333C11.0309 9.42982 10.7671 9.54308 10.49 9.54908C10.2136 9.5431 9.95028 9.43031 9.75567 9.23449C9.56106 9.03868 9.45039 8.77517 9.44702 8.49957C9.45279 8.22792 9.56269 7.96878 9.75422 7.77543C9.94575 7.58208 10.2043 7.46918 10.4768 7.45996C10.7533 7.46244 11.0181 7.57193 11.2152 7.76528C11.4123 7.95863 11.5263 8.22073 11.5331 8.49627ZM10.5066 7.87581C10.3396 7.88324 10.1816 7.95337 10.0642 8.07213C9.94693 8.19089 9.87904 8.34948 9.87419 8.51607C9.87592 8.67891 9.94177 8.83454 10.0576 8.94938C10.1735 9.06422 10.33 9.12907 10.4933 9.12993C10.6611 9.12993 10.822 9.06353 10.9406 8.94531C11.0592 8.8271 11.1259 8.66676 11.1259 8.49957C11.1217 8.33656 11.0553 8.18125 10.9402 8.06534C10.8252 7.94942 10.6701 7.88164 10.5066 7.87581Z" fill="black"/>
</g>
<defs>
<clipPath id="clip0_171_2192">
<rect width="8" height="8" fill="white" transform="translate(5.5 5.5)"/>
</clipPath>
</defs>
</svg>
