<svg width="17" height="20" viewBox="0 0 17 20" fill="none" xmlns="http://www.w3.org/2000/svg">
<g clip-path="url(#clip0_171_2167)">
<path d="M1.53878 15.2253H1.07613C0.932381 15.225 0.790139 15.1946 0.657848 15.136C0.525556 15.0773 0.405929 14.9916 0.305974 14.8839C0.206019 14.7761 0.127813 14.6486 0.0759678 14.5088C0.0241225 14.3689 -0.000300411 14.2197 0.00414584 14.0699C0.00414584 13.0588 0.00414584 12.0478 0.00414584 11.0367C0.00414584 10.1224 0.00414584 9.2096 0.00414584 8.29243C-0.000314769 8.13882 0.0254816 7.98588 0.0800256 7.84311C0.134569 7.70034 0.216657 7.57077 0.321191 7.46244C0.425724 7.3541 0.550493 7.26931 0.68774 7.21333C0.824986 7.15734 0.971801 7.13134 1.11908 7.13695H1.53459V6.99829C1.53459 4.95116 1.53459 2.9045 1.53459 0.858333C1.53459 0.451024 1.7188 0.15782 2.05398 0.0451599C2.13127 0.0182745 2.21212 0.00414229 2.29359 0.00327375C4.73403 0.00327375 7.17446 0.00327375 9.6149 0.00327375C10.1828 0.00327375 10.7506 0.00327375 11.3199 0.00327375C11.3923 0.000440589 11.4644 0.0151358 11.5305 0.0462082C11.5966 0.0772805 11.6549 0.123886 11.7008 0.182374L13.9792 2.89776C14.4169 3.41918 14.8517 3.94203 15.2936 4.45767C15.3488 4.51989 15.3917 4.59289 15.4198 4.67246C15.4478 4.75203 15.4605 4.8366 15.457 4.92131C15.457 5.61604 15.457 6.31222 15.457 7.0084V7.15284H15.8947C16.1528 7.14866 16.4038 7.24087 16.6025 7.41282C16.731 7.52456 16.8331 7.66569 16.9008 7.82526C16.9686 7.98483 17.0001 8.15853 16.993 8.33288C16.993 9.22404 16.993 10.1152 16.993 11.0064C16.993 12.0126 16.993 13.0184 16.993 14.0236C17.0022 14.2092 16.9684 14.3942 16.8943 14.5632C16.8203 14.7322 16.7083 14.88 16.5678 14.9942C16.3694 15.1521 16.1248 15.2337 15.8753 15.2253H15.4598V15.3467C15.4598 16.6119 15.4598 17.8777 15.4598 19.1439C15.4703 19.298 15.438 19.452 15.3667 19.5875C15.2955 19.723 15.1884 19.8343 15.0582 19.9079C14.9243 19.9776 14.7752 20.009 14.626 19.9989H2.32686C2.15157 20.009 1.97849 19.954 1.83831 19.8438C1.69814 19.7335 1.59987 19.5752 1.5609 19.3966C1.54259 19.306 1.5347 19.2134 1.53736 19.1208C1.53736 17.869 1.53736 16.6143 1.53736 15.3568L1.53878 15.2253ZM2.30468 0.789004V7.14417H14.698V5.19429H11.4293C11.3726 5.20038 11.3153 5.19305 11.2617 5.17286C11.208 5.15267 11.1594 5.12014 11.1195 5.07767C11.0796 5.0352 11.0493 4.9839 11.0311 4.92757C11.0128 4.87125 11.0068 4.81134 11.0138 4.75232C11.0138 4.449 11.0138 4.14569 11.0138 3.84237V0.789004H2.30468ZM2.30468 18.998H14.7022V15.234H2.30468V18.998ZM6.57058 14.2793C6.95978 14.3024 7.34484 14.3327 7.72988 14.3457C8.36884 14.3823 9.0092 14.3076 9.62464 14.1247C10.421 13.8705 11.0097 13.365 11.3089 12.5461C11.5476 11.896 11.602 11.188 11.4654 10.5066C11.4125 10.1926 11.2994 9.89298 11.1328 9.62568C10.9662 9.35837 10.7496 9.12891 10.4958 8.95106C10.0368 8.62894 9.50027 8.44777 8.94733 8.4282C8.40994 8.40076 7.86978 8.4152 7.331 8.4282C7.07754 8.4282 6.82546 8.4802 6.572 8.50764L6.57058 14.2793ZM1.73125 8.51342V14.2807H2.98611V12.1994H3.03873C3.52328 12.2567 4.01401 12.2075 4.47922 12.055C5.11634 11.8354 5.5595 11.4122 5.70493 10.7074C5.92238 9.65302 5.43765 8.71419 4.35316 8.47875C3.9798 8.4057 3.59983 8.37567 3.22017 8.38921C2.72011 8.38933 2.22088 8.43086 1.72713 8.51342H1.73125ZM12.3712 14.2793H13.6454V11.9322H15.6565V10.8576H13.6482V9.51869H15.7908V8.44409H12.3712V14.2793Z" fill="white"/>
<path d="M7.83798 11.3769C7.83798 10.7862 7.83798 10.194 7.83798 9.60178C7.83798 9.48768 7.86153 9.4429 7.97649 9.43135C8.40643 9.36372 8.84577 9.41093 9.25346 9.56856C9.4798 9.66407 9.67898 9.81841 9.83196 10.0169C9.98493 10.2153 10.0866 10.4513 10.1274 10.7024C10.2262 11.1743 10.2038 11.6651 10.0624 12.1251C9.85323 12.8039 9.38783 13.1751 8.72717 13.2806C8.46289 13.3056 8.19741 13.3148 7.93212 13.308C7.85317 13.308 7.83937 13.269 7.84075 13.1982C7.84075 12.5916 7.84075 11.985 7.84075 11.3783L7.83798 11.3769Z" fill="white"/>
<path d="M2.98199 11.1781V9.43334C3.35319 9.38423 3.72024 9.33657 4.07204 9.50844C4.42384 9.68032 4.57617 10.0862 4.45982 10.5282C4.41886 10.6828 4.3379 10.8227 4.22576 10.9325C4.11362 11.0423 3.97466 11.1178 3.82411 11.1507C3.54754 11.2148 3.26186 11.2241 2.98199 11.1781Z" fill="white"/>
</g>
<defs>
<clipPath id="clip0_171_2167">
<rect width="17" height="20" fill="white"/>
</clipPath>
</defs>
</svg>
