<svg width="17" height="20" viewBox="0 0 17 20" fill="none" xmlns="http://www.w3.org/2000/svg">
<g clip-path="url(#clip0_171_2184)">
<path d="M14.8671 19.9724H2.13301C1.93266 19.9067 1.76253 19.7723 1.65327 19.5935C1.54401 19.4147 1.5028 19.2032 1.53697 18.997C1.53697 17.885 1.53697 16.7729 1.53697 15.6609V15.4366C1.37934 15.4366 1.25615 15.4366 1.12807 15.4366C0.978953 15.4443 0.829859 15.4209 0.690418 15.368C0.550976 15.3152 0.424367 15.2339 0.318554 15.1296C0.212741 15.0253 0.130102 14.9002 0.0760974 14.7624C0.0220925 14.6246 -0.00218172 14.4771 0.00489971 14.3295C0.00489971 12.5151 0.00489971 10.696 0.00489971 8.88167C-0.00236354 8.73206 0.0224065 8.5826 0.0775406 8.44312C0.132675 8.30364 0.217028 8.17732 0.324928 8.07233C0.432828 7.96734 0.56183 7.8861 0.703647 7.83395C0.845464 7.7818 0.99683 7.75986 1.14779 7.76965H1.53697V1.85842C1.51963 1.73979 1.53054 1.61888 1.56872 1.50513C1.6069 1.39138 1.67133 1.28792 1.75694 1.20316C1.84255 1.1184 1.94692 1.05462 2.06181 1.01681C2.17671 0.979012 2.29894 0.96833 2.41877 0.985498H11.2414C11.3401 0.981676 11.4384 1.0008 11.5282 1.04146C11.6181 1.08213 11.697 1.14318 11.7586 1.21959C12.9146 2.54294 14.0789 3.85809 15.2513 5.16518C15.3888 5.31797 15.4626 5.51669 15.4582 5.72125C15.4582 6.34065 15.4582 6.9552 15.4582 7.57461V7.77453H15.8473C15.9983 7.76474 16.1497 7.78668 16.2915 7.83883C16.4333 7.89098 16.5623 7.97211 16.6702 8.07709C16.7781 8.18208 16.8625 8.30852 16.9176 8.448C16.9727 8.58749 16.9975 8.73694 16.9902 8.88655C16.9902 10.7009 16.9902 12.52 16.9902 14.3343C16.9968 14.4836 16.9715 14.6325 16.916 14.7713C16.8606 14.9102 16.7761 15.036 16.6683 15.1405C16.5605 15.2449 16.4316 15.3257 16.2902 15.3775C16.1487 15.4294 15.9979 15.4512 15.8473 15.4415C15.7242 15.4415 15.601 15.4415 15.4582 15.4415V15.6805C15.4582 16.7876 15.4582 17.8947 15.4582 19.0019C15.4913 19.2067 15.4502 19.4166 15.342 19.5943C15.2338 19.7719 15.0655 19.9059 14.8671 19.9724ZM14.6995 5.91629H11.5222C11.133 5.91629 11.0296 5.78946 11.0296 5.40416V1.74137H2.3252V7.76477H14.7192L14.6995 5.91629ZM2.30054 15.4561C2.30054 15.5244 2.30054 15.5878 2.30054 15.6463C2.30054 16.7046 2.30054 17.7581 2.30054 18.8165C2.30054 18.9872 2.35471 19.0312 2.52219 19.0312H14.5025H14.7094V15.4708L2.30054 15.4561ZM8.16256 12.3395C8.49261 12.3395 8.80785 12.3395 9.11327 12.3395C9.51831 12.3293 9.90927 12.19 10.2279 11.9422C10.5465 11.6944 10.7759 11.3514 10.8818 10.9642C10.9486 10.7471 10.9698 10.5187 10.9441 10.2932C10.9184 10.0676 10.8463 9.8497 10.7323 9.65278C10.6183 9.45586 10.4648 9.28413 10.2813 9.14815C10.0978 9.01217 9.88802 8.91486 9.66505 8.86214C8.75217 8.68901 7.81434 8.68901 6.90145 8.86214V14.3392H8.14284L8.16256 12.3395ZM3.32509 12.3395C3.65514 12.3395 3.96064 12.3395 4.26606 12.3395C4.67949 12.3393 5.08041 12.1995 5.40281 11.9433C5.72521 11.687 5.94975 11.3297 6.03938 10.9301C6.10453 10.7094 6.12193 10.4776 6.09038 10.2498C6.05883 10.022 5.97909 9.80331 5.85634 9.60813C5.73359 9.41294 5.57059 9.24562 5.37804 9.11707C5.18549 8.98852 4.96773 8.90164 4.73894 8.86214C3.85695 8.7134 2.95595 8.7134 2.07396 8.86214V14.3343H3.32509V12.3395ZM15.6404 8.78903H11.3399V9.8327H12.8473V14.3246H14.1232V9.83758H15.6404V8.78903Z" fill="white"/>
<path d="M8.18719 11.3688V9.73503C8.55582 9.64586 8.9434 9.67311 9.29557 9.81302C9.42214 9.87544 9.52716 9.97367 9.59732 10.0952C9.66747 10.2168 9.69963 10.3563 9.68968 10.4959C9.70103 10.654 9.66444 10.8117 9.58457 10.949C9.5047 11.0863 9.38511 11.1968 9.24133 11.2664C8.91217 11.4192 8.54006 11.4553 8.18719 11.3688Z" fill="white"/>
<path d="M3.33493 11.3735V9.73487C3.68758 9.64899 4.05818 9.66931 4.39905 9.79333C4.53839 9.85237 4.6553 9.95357 4.73315 10.0823C4.811 10.2111 4.84575 10.3608 4.83249 10.5103C4.84224 10.6749 4.80012 10.8384 4.71186 10.9782C4.6236 11.118 4.49358 11.2272 4.33988 11.2907C4.02109 11.4183 3.67066 11.4472 3.33493 11.3735Z" fill="white"/>
</g>
<defs>
<clipPath id="clip0_171_2184">
<rect width="17" height="18.987" fill="white" transform="translate(0 0.985352)"/>
</clipPath>
</defs>
</svg>
