<svg width="12" height="19" viewBox="0 0 12 19" fill="none" xmlns="http://www.w3.org/2000/svg">
<g clip-path="url(#clip0_171_2022)">
<path d="M6.4194 0.600586C6.76203 0.674206 7.10456 0.7202 7.43817 0.812224C8.46139 1.11482 9.37446 1.71903 10.0626 2.54903C10.7507 3.37903 11.1833 4.39789 11.3063 5.47788C11.4238 6.61076 11.1904 7.75273 10.6389 8.74316C10.0874 9.7336 9.24577 10.5227 8.23197 10.9993C8.17554 11.0164 8.12699 11.0538 8.09549 11.1046C8.06399 11.1554 8.05129 11.216 8.06027 11.2754C8.07646 11.7246 8.05268 12.1743 7.9885 12.619C7.88274 13.1133 7.60298 13.551 7.20263 13.8494C6.80228 14.1478 6.3089 14.2863 5.81536 14.2386C5.3125 14.1919 4.84371 13.9595 4.49676 13.5851C4.14982 13.2106 3.9487 12.7199 3.93102 12.2049C3.93102 11.2846 3.93102 10.2632 3.93102 9.2877C3.95838 8.75202 4.18364 8.24689 4.56192 7.87448C4.9402 7.50207 5.44305 7.29018 5.96857 7.28158C6.23142 7.28982 6.48972 7.2083 6.70205 7.04994C6.91438 6.89158 7.06885 6.66543 7.14099 6.40733C7.2127 6.18841 7.21886 5.95274 7.15948 5.73001C7.10011 5.50728 6.97776 5.30748 6.80727 5.15581C6.64505 4.99066 6.43775 4.87943 6.21247 4.83673C5.98719 4.79402 5.75454 4.82185 5.54503 4.91654C5.33268 4.99636 5.14815 5.13861 5.01495 5.32532C4.88176 5.51204 4.8058 5.73486 4.79658 5.96563C4.76127 6.46958 4.54967 6.94376 4.20046 7.30185C3.85125 7.65995 3.38735 7.87812 2.89376 7.91655C2.38708 7.95698 1.88391 7.80442 1.48095 7.48833C1.07799 7.17223 0.80388 6.71497 0.711806 6.20485C0.623604 5.58337 0.695047 4.94917 0.91917 4.36436C1.23875 3.36997 1.83551 2.49221 2.6362 1.83846C3.43689 1.18471 4.40679 0.783308 5.42748 0.683377H5.53579L6.4194 0.600586ZM4.9586 10.7233C4.9586 11.1466 4.9586 11.5791 4.9586 12.0024C4.94934 12.1065 4.94934 12.2112 4.9586 12.3153C5.01224 12.5668 5.15315 12.79 5.35528 12.9439C5.55741 13.0977 5.80736 13.1719 6.05882 13.1527C6.31058 13.121 6.54176 12.9953 6.70821 12.8C6.87466 12.6046 6.96463 12.3533 6.96048 12.0944C6.96048 11.6711 6.96048 11.2478 6.96048 10.8337C6.96048 10.4196 7.03242 10.2815 7.43817 10.1251C8.33333 9.77964 9.09062 9.13996 9.59019 8.30685C10.0898 7.47375 10.3032 6.49462 10.1973 5.52388C10.1068 4.77102 9.82695 4.05496 9.38458 3.44546C8.94222 2.83596 8.35255 2.35382 7.67327 2.04611C6.99399 1.7384 6.24813 1.61562 5.50849 1.68967C4.76886 1.76372 4.06063 2.03208 3.45289 2.46865C2.92151 2.83199 2.48148 3.31792 2.1682 3.88705C1.85492 4.45618 1.67719 5.09254 1.64957 5.74473C1.63976 5.88256 1.65698 6.02104 1.69976 6.15216C1.74254 6.28329 1.80995 6.4045 1.89876 6.50883C1.98757 6.61315 2.09583 6.69852 2.21707 6.76006C2.33831 6.82161 2.47028 6.85812 2.60538 6.86745C2.7435 6.87488 2.88193 6.85424 3.01219 6.80679C3.14245 6.75935 3.2621 6.686 3.3644 6.591C3.46671 6.496 3.54931 6.38126 3.60787 6.25338C3.66642 6.12549 3.69984 5.98703 3.70561 5.846C3.73388 5.52371 3.82909 5.21127 3.98517 4.92963C4.14126 4.64798 4.35428 4.4036 4.61035 4.21282C4.86642 4.02203 5.15979 3.88926 5.47019 3.82335C5.78059 3.75745 6.10122 3.75994 6.41059 3.83066C6.95713 3.95259 7.43873 4.27917 7.76089 4.74596C8.08305 5.21275 8.22208 5.78584 8.15052 6.35212C8.07904 6.89796 7.81753 7.39925 7.41352 7.76428C7.0095 8.1293 6.49006 8.33362 5.95052 8.33982C5.81053 8.33729 5.67166 8.36371 5.54195 8.4175C5.41224 8.4713 5.29448 8.55138 5.1959 8.65285C5.09732 8.75431 5.01989 8.8751 4.96829 9.00793C4.91669 9.14077 4.89197 9.28286 4.89564 9.42571L4.9586 10.7233Z" fill="white"/>
<path d="M6.00451 18.6101C5.54849 18.6077 5.11184 18.4217 4.78938 18.0926C4.46692 17.7635 4.28457 17.3178 4.2822 16.8524C4.28219 16.6208 4.32716 16.3915 4.41428 16.1777C4.50139 15.9638 4.62895 15.7696 4.78982 15.6063C4.9507 15.4429 5.14161 15.3137 5.3516 15.2259C5.56159 15.1381 5.78684 15.0935 6.01376 15.0948C6.46894 15.0972 6.90434 15.2834 7.22537 15.6128C7.54639 15.9421 7.72683 16.3878 7.72683 16.8524C7.72446 17.3178 7.5421 17.7635 7.21964 18.0926C6.89718 18.4217 6.46053 18.6077 6.00451 18.6101ZM6.00451 17.5518C6.09525 17.5542 6.18579 17.5383 6.27043 17.5048C6.35507 17.4713 6.43218 17.421 6.49761 17.3568C6.56304 17.2926 6.61517 17.2158 6.65126 17.1308C6.68735 17.0458 6.70645 16.9542 6.70762 16.8616C6.7101 16.6768 6.64207 16.4983 6.51742 16.3642C6.39277 16.2301 6.22159 16.151 6.04061 16.1438C5.85801 16.1414 5.6818 16.2124 5.55016 16.3416C5.41852 16.4707 5.34224 16.6477 5.33751 16.834C5.33482 17.0158 5.4007 17.1917 5.52154 17.3253C5.64238 17.4589 5.80868 17.54 5.98646 17.5518H6.00451Z" fill="white"/>
</g>
<defs>
<clipPath id="clip0_171_2022">
<rect width="10.6667" height="18" fill="white" transform="translate(0.666687 0.600586)"/>
</clipPath>
</defs>
</svg>
