<svg width="20" height="18" viewBox="0 0 20 18" fill="none" xmlns="http://www.w3.org/2000/svg">
<g clip-path="url(#clip0_171_2039)">
<path d="M2.58022 15.4672H1.94886C1.78025 15.4823 1.61048 15.4605 1.45108 15.4031C1.29168 15.3458 1.14642 15.2543 1.02561 15.135C0.9048 15.0156 0.811168 14.8713 0.751219 14.712C0.69127 14.5527 0.666571 14.3822 0.678531 14.2122C0.678531 11.7652 0.701913 9.31814 0.678531 6.87108C0.674389 6.71013 0.701902 6.54995 0.759782 6.39984C0.817661 6.24974 0.904772 6.11269 1.01571 5.99667C1.12665 5.88066 1.25935 5.78797 1.40618 5.724C1.553 5.66003 1.71086 5.62605 1.87085 5.62402C4.72865 5.62402 7.57743 5.62402 10.4171 5.62402C10.5749 5.62387 10.7311 5.6559 10.8764 5.71819C11.0216 5.78047 11.1529 5.87173 11.2621 5.98643C11.3714 6.10113 11.4565 6.2369 11.5121 6.38558C11.5678 6.53425 11.593 6.69274 11.5862 6.85148C11.5706 9.34037 11.5706 11.8319 11.5862 14.326C11.5655 14.6225 11.4396 14.9018 11.2315 15.1127C11.0233 15.3236 10.7466 15.4522 10.4521 15.475C9.11539 15.475 7.7788 15.4985 6.44603 15.4515C6.26308 15.4478 6.08206 15.4896 5.91894 15.573C5.75582 15.6565 5.61567 15.779 5.51078 15.9299C5.1016 16.3887 4.71187 16.8672 4.31047 17.3338C4.25516 17.3991 4.20317 17.4672 4.15463 17.5378C4.04074 17.6908 3.88488 17.8072 3.70632 17.8727C3.52777 17.9381 3.33423 17.9499 3.14917 17.9064C2.97698 17.8463 2.82883 17.7317 2.72693 17.5796C2.62504 17.4276 2.57483 17.2464 2.58403 17.0632C2.57624 16.5456 2.58022 16.0319 2.58022 15.4672ZM3.42584 17.0358C3.51937 16.9495 3.5584 16.9221 3.58568 16.8907L5.1717 15.0279C5.26479 14.9029 5.38618 14.8022 5.52581 14.7339C5.66545 14.6657 5.81932 14.6321 5.9745 14.6358C7.4086 14.6593 8.8427 14.6358 10.2612 14.6358C10.6509 14.6358 10.7171 14.5691 10.7171 14.1809V6.95344C10.7171 6.60834 10.5886 6.47107 10.2612 6.47107H1.94886C1.65269 6.47107 1.50855 6.60835 1.50855 6.90638C1.50855 9.3639 1.50855 11.8214 1.50855 14.2789C1.50855 14.5142 1.60211 14.624 1.83983 14.6201C2.19056 14.6201 2.54118 14.6201 2.89191 14.6201C3.24264 14.6201 3.40634 14.7495 3.41024 15.1495L3.42584 17.0358Z" fill="white"/>
<path d="M9.2829 4.94153H8.39447C8.45682 4.46702 8.4919 4.00819 8.58932 3.56113C8.66765 3.37754 8.79513 3.21946 8.95752 3.10451C9.11991 2.98957 9.31078 2.92228 9.50896 2.91016H18.2812C18.5604 2.92077 18.8252 3.03683 19.0231 3.23525C19.221 3.43366 19.3373 3.69986 19.3489 3.98074V11.3062C19.3244 11.5923 19.1968 11.8595 18.99 12.0574C18.7833 12.2553 18.5118 12.3703 18.2266 12.3807H17.8369C17.8369 12.9023 17.8174 13.416 17.8369 13.9258C17.8506 14.0559 17.8329 14.1874 17.7855 14.3091C17.7381 14.4309 17.6624 14.5394 17.5646 14.6256C17.4668 14.7117 17.3499 14.7729 17.2236 14.804C17.0974 14.8351 16.9655 14.8352 16.8393 14.8043C16.5281 14.6586 16.2548 14.4425 16.0404 14.1729C15.8144 13.9454 15.6507 13.6709 15.4247 13.4278C15.1987 13.1846 14.8908 12.8788 14.6453 12.5807C14.5929 12.5094 14.5229 12.4531 14.4423 12.4174C14.3616 12.3816 14.273 12.3676 14.1854 12.3768C13.5735 12.3768 12.9618 12.3768 12.3305 12.3768V11.5258C13.1294 11.5258 13.9283 11.5258 14.7233 11.5258C14.887 11.5258 15.0623 11.7376 15.1948 11.8827C15.6742 12.4121 16.1418 12.9533 16.6094 13.4945C16.7146 13.616 16.8081 13.7415 16.9757 13.9454V11.9846C16.9757 11.9101 16.9445 11.7964 16.9757 11.7611C17.0744 11.6463 17.2025 11.5609 17.346 11.5141C17.5978 11.5003 17.8502 11.5003 18.102 11.5141C18.328 11.5141 18.4917 11.4356 18.4917 11.1455C18.4917 8.8082 18.4917 6.47223 18.4917 4.13759C18.4917 3.87092 18.3864 3.76898 18.1214 3.76898H9.74282C9.33363 3.76898 9.2829 3.82779 9.2829 4.2474V4.94153Z" fill="white"/>
<path d="M3.82328 4.94155H2.97366V3.41998C2.97366 2.87096 2.97366 2.31801 2.97366 1.76899C2.97339 1.546 3.03487 1.32735 3.1512 1.13755C3.26753 0.947758 3.43409 0.794324 3.63224 0.694487C3.75345 0.634483 3.88685 0.603615 4.02194 0.604298H12.3967C12.6289 0.595378 12.8576 0.662905 13.0482 0.796667C13.2388 0.930428 13.3809 1.1231 13.4528 1.34546C13.5092 1.61321 13.5482 1.88437 13.5696 2.15722H12.7396C12.7396 2.15722 12.7085 2.12195 12.7046 2.10234C12.6656 1.41999 12.6227 1.37684 11.9252 1.37684H4.43904C3.91684 1.37684 3.80387 1.49057 3.80387 2.00038L3.82328 4.94155Z" fill="white"/>
<path d="M13.9127 8.8555C13.8447 8.54712 13.8708 8.2253 13.9876 7.93212C14.1045 7.63894 14.3064 7.38807 14.5672 7.21236C14.6855 7.13129 14.7852 7.02566 14.8595 6.90256C14.9554 6.77687 15.0112 6.62493 15.0195 6.46673C15.0279 6.30852 14.9884 6.15148 14.9063 6.01629C14.8045 5.87611 14.6593 5.77387 14.4936 5.72562C14.3279 5.67736 14.1509 5.6858 13.9905 5.74962C13.8448 5.79471 13.7198 5.89044 13.6377 6.01973C13.5556 6.14903 13.5218 6.30348 13.5424 6.4555H12.7358C12.6907 6.24225 12.703 6.02073 12.7715 5.81389C12.8401 5.60705 12.9622 5.4224 13.1255 5.27903C13.3678 5.053 13.6722 4.90586 13.9991 4.85688C14.3259 4.8079 14.6597 4.85935 14.9569 5.00451C15.1854 5.11282 15.3843 5.27538 15.5365 5.4782C15.6888 5.68101 15.7899 5.91801 15.8309 6.1688C15.8719 6.41959 15.8517 6.67667 15.7721 6.91788C15.6925 7.1591 15.556 7.37724 15.374 7.55353C15.2145 7.70426 15.0635 7.86401 14.9219 8.03198C14.8164 8.16135 14.7524 8.32003 14.7387 8.48687C14.7387 8.75746 14.6608 8.87902 14.3802 8.84372C14.2399 8.84372 14.088 8.8555 13.9127 8.8555Z" fill="white"/>
<path d="M13.9087 9.54112C14.7933 9.47445 14.7933 9.47445 14.7193 10.3725H13.9087V9.54112Z" fill="white"/>
<path d="M6.49655 11.9538H5.66653C5.7172 11.4872 5.72499 11.0323 6.05624 10.6715C6.21601 10.5029 6.37969 10.3421 6.54336 10.1774C6.68567 10.0606 6.78239 9.8971 6.81661 9.7156C6.85083 9.53409 6.82034 9.34627 6.73041 9.18521C6.65314 9.03264 6.52175 8.91488 6.36221 8.85531C6.20267 8.79574 6.02665 8.79871 5.86919 8.86364C5.71045 8.89946 5.57082 8.99379 5.47777 9.12808C5.38472 9.26236 5.34498 9.42685 5.36646 9.58912H4.56765C4.39228 9.02834 4.81317 8.48715 5.25743 8.20872C5.61573 7.99645 6.04067 7.929 6.44651 8.01999C6.85234 8.11099 7.20874 8.35365 7.44359 8.69892C7.61065 8.98109 7.69086 9.30672 7.67422 9.63474C7.65757 9.96276 7.54472 10.2785 7.34997 10.5421C7.22959 10.7044 7.08658 10.8484 6.92526 10.9695C6.79004 11.0948 6.68222 11.247 6.60844 11.4164C6.53465 11.5859 6.49646 11.7689 6.49655 11.9538Z" fill="white"/>
<path d="M5.66656 13.5305V12.7227H6.47318V13.5305H5.66656Z" fill="white"/>
</g>
<defs>
<clipPath id="clip0_171_2039">
<rect width="18.6667" height="17.3333" fill="white" transform="translate(0.666687 0.600586)"/>
</clipPath>
</defs>
</svg>
