<svg xmlns="http://www.w3.org/2000/svg" viewBox="0 0 237.39 187.96"><defs><style>.a{fill:#09202c;}.b{fill:#76c3ed;}.c{fill:#d92d1b;}.d{fill:#f6c206;}.e{fill:#e67717;}.f{fill:#fff;}</style></defs><path class="a" d="M1463.33,882.49H1254.25c-10.47,0-14.11,3.63-14.12,14q0,64,0,127.93c0,10.45,3.63,14.11,14,14.12q36.34,0,72.68,0h5.43c-2.74,9-2.74,9-10.67,9.32a27.13,27.13,0,0,0-4.95.45c-8.47,1.91-15.79,5.47-18.59,14.52-1.67,5.4,0,7.56,5.54,7.56q55.26.06,110.51,0c5.43,0,7.28-2.05,5.48-7.07a24.81,24.81,0,0,0-6.12-9.32c-4.76-4.48-11-6-17.44-6.17-8-.25-8-.3-10.58-9.29h5.43q36.33,0,72.68,0c10.36,0,14-3.67,14-14.17q0-64,0-127.93C1477.49,886.09,1473.84,882.49,1463.33,882.49ZM1397.1,1056c4.88,0,9.26,1.76,13.36,6.11H1307.18c4.11-4.35,8.5-6.1,13.39-6.12Q1358.84,1055.8,1397.1,1056Zm-59-8.42c2.46-8.94,2.51-9,10.76-9h19.83c8.25,0,8.31,0,10.76,9Zm131.21-20.79c-.09,1.34-2,2.85-3.5,3.69-1,.58-2.59.15-3.92.15H1255.76c-7.66,0-7.66,0-7.67-7.75v-13.78h0V995.37q0-49.05,0-98.1c0-6.62.18-6.82,6.6-6.82h208.16c6.47,0,6.67.21,6.67,6.74q0,46.5,0,93v22.52C1469.57,1017.51,1469.65,1022.14,1469.35,1026.75Z" transform="translate(-1240.12 -882.48)"/><path class="a" d="M1359.82,903.47a5,5,0,0,1,3.69,3.53,20.45,20.45,0,0,1,.29,2.22c.71,0,1.47,0,2.22,0a30.18,30.18,0,0,1,5,.38,10.32,10.32,0,0,1,8,9.93c0,2.33,0,4.66,0,7l-.06,64c0,4.56-1.88,8.06-6,10.08a10.82,10.82,0,0,1-4.43,1q-27,.11-54,0a10.48,10.48,0,0,1-10.42-10.78q0-23.21,0-46.42,0-12.08,0-24.16c0-4.62,2-8.12,6.21-10.06a15.17,15.17,0,0,1,4.63-1,41.12,41.12,0,0,1,4.45,0c0-.39,0-.7,0-1a4.84,4.84,0,0,1,3.22-4.47c.2-.08.39-.18.59-.27ZM1319.49,915h-4.34c-3.23,0-5.24,2-5.24,5.18q0,35.39-.06,70.78a4.76,4.76,0,0,0,5,5h53a5.12,5.12,0,0,0,4-1.54,5.43,5.43,0,0,0,1.32-4q0-34,0-68c0-.93,0-1.86,0-2.78a4.5,4.5,0,0,0-3-4.28c-2.12-.79-4.34-.21-6.52-.39.18,4-2.44,5.9-6,5.82-7.11-.16-14.22,0-21.34,0-4,0-8,0-12,0a4.8,4.8,0,0,1-4.88-4.67C1319.48,915.74,1319.49,915.42,1319.49,915Zm38.39-5.7h-32.55v5.63h32.55Z" transform="translate(-1240.12 -882.48)"/><path class="a" d="M1352.8,980.2h-9.88a2.9,2.9,0,1,1,0-5.75h19.87a2.89,2.89,0,1,1,0,5.75Z" transform="translate(-1240.12 -882.48)"/><path class="a" d="M1352.81,941.83h-9.89a3,3,0,0,1-3.27-2.87c0-1.7,1.33-2.88,3.27-2.88h19.77a2.89,2.89,0,1,1,0,5.75Z" transform="translate(-1240.12 -882.48)"/><path class="a" d="M1352.81,961h-9.89c-1.93,0-3.27-1.18-3.27-2.87s1.34-2.88,3.27-2.88h19.78a2.89,2.89,0,1,1,0,5.75Z" transform="translate(-1240.12 -882.48)"/><path class="b" d="M1323.58,958.49c2.3-2.31,4.46-4.49,6.63-6.65a2.8,2.8,0,0,1,3-.75,2.86,2.86,0,0,1,1.13,4.74c-2.86,2.88-5.73,5.76-8.62,8.6a2.82,2.82,0,0,1-4.2,0c-1.21-1.15-2.39-2.32-3.53-3.53a2.84,2.84,0,0,1,0-4,2.89,2.89,0,0,1,4.07,0C1322.55,957.31,1323,957.86,1323.58,958.49Z" transform="translate(-1240.12 -882.48)"/><path class="b" d="M1323.49,977.73c2.32-2.32,4.45-4.43,6.56-6.57a3,3,0,0,1,2.48-1,2.74,2.74,0,0,1,2.43,1.75,2.59,2.59,0,0,1-.48,3c-3,3-5.94,6-9,8.95a2.67,2.67,0,0,1-3.75,0c-1.37-1.25-2.69-2.56-3.94-3.93a2.79,2.79,0,0,1,.13-3.83,2.85,2.85,0,0,1,3.92-.17A18.79,18.79,0,0,1,1323.49,977.73Z" transform="translate(-1240.12 -882.48)"/><path class="b" d="M1323.58,937.8c2.23-2.23,4.31-4.35,6.45-6.4a4.22,4.22,0,0,1,1.88-1,2.65,2.65,0,0,1,2.94,1.48,2.76,2.76,0,0,1-.52,3.35c-2,2-4,4-6,6-.86.86-1.7,1.73-2.59,2.57a2.83,2.83,0,0,1-4.19,0c-1.2-1.16-2.38-2.33-3.53-3.53a2.87,2.87,0,0,1,4.06-4C1322.55,936.67,1323,937.21,1323.58,937.8Z" transform="translate(-1240.12 -882.48)"/><polygon class="c" points="161.09 105.85 170.34 128.61 159.94 126.44 159.98 126.42 154.04 135.23 144.79 112.46 161.09 105.85"/><polygon class="c" points="143.52 112.56 133.96 135.19 128.15 126.3 128.18 126.32 117.75 128.35 127.32 105.71 143.52 112.56"/><path class="d" d="M1407.8,972.64c0,1.29-1.58,2.44-1.77,3.68s.94,2.84.55,4-2.25,1.82-2.82,2.94,0,3-.73,4-2.7,1-3.59,1.93-.9,2.84-1.93,3.59-2.88.15-4,.73-1.73,2.43-3,2.82-2.77-.75-4-.55-2.39,1.77-3.68,1.77-2.44-1.58-3.67-1.77-2.85.94-4,.55-1.82-2.25-2.95-2.82-3,0-4-.73-1-2.7-1.93-3.59-2.85-.91-3.59-1.93-.15-2.88-.73-4-2.43-1.73-2.82-2.94.75-2.78.55-4-1.77-2.39-1.77-3.68,1.57-2.44,1.77-3.67-.94-2.85-.55-4,2.24-1.83,2.82-2.95,0-3,.73-4,2.69-1,3.59-1.93.9-2.85,1.93-3.59,2.88-.16,4-.73,1.73-2.43,2.95-2.83,2.77.76,4,.56,2.38-1.77,3.67-1.77,2.44,1.57,3.68,1.77,2.85-.94,4-.56,1.82,2.25,3,2.83,3,0,4,.73,1,2.69,1.93,3.59,2.84.9,3.59,1.93.15,2.88.73,4,2.43,1.73,2.82,2.95-.75,2.77-.55,4S1407.8,971.35,1407.8,972.64Z" transform="translate(-1240.12 -882.48)"/><circle class="e" cx="142.72" cy="90.16" r="18.64"/><circle class="d" cx="142.72" cy="90.16" r="16.89"/><polygon class="f" points="153.27 83.32 140.9 98.81 139.57 100.46 137.89 99.05 132.16 94.24 135.88 90.52 139.09 94.33 148.48 79.86 153.27 83.32"/></svg>