<svg width="22" height="22" viewBox="0 0 22 22" fill="none" xmlns="http://www.w3.org/2000/svg">
<g clip-path="url(#clip0_171_2176)">
<path d="M11.6245 21.9338H10.3756H10.209C8.92085 21.8604 7.65927 21.5397 6.49201 20.9893C4.93429 20.2672 3.57504 19.177 2.53124 17.8124C1.48743 16.4479 0.789895 14.85 0.499376 13.156L0.332764 11.9337V10.6837C0.332764 10.3226 0.333576 9.96162 0.472285 9.60051C0.841824 7.2452 2.00693 5.08808 3.77338 3.48936C4.87162 2.4426 6.18599 1.65098 7.62443 1.17087C9.06287 0.690768 10.59 0.533975 12.0959 0.711583C14.3195 0.890528 16.4189 1.80976 18.0601 3.3227C20.1008 5.09028 21.3827 7.57752 21.6388 10.2671C21.8243 11.9978 21.5664 13.7472 20.8898 15.3505C20.2003 17.074 19.0669 18.5835 17.6049 19.7254C16.1429 20.8672 14.4045 21.6005 12.5673 21.8504L11.6245 21.9338ZM10.9865 20.1282C12.1486 20.1319 13.2992 19.9062 14.3743 19.4643C15.4493 19.0224 16.427 18.3728 17.2514 17.5525C18.0757 16.7323 18.7308 15.7574 19.1789 14.6837C19.627 13.61 19.8594 12.4586 19.863 11.2949C19.8703 10.1266 19.6475 8.96828 19.206 7.88677C18.7646 6.80527 18.1132 5.82192 17.2907 4.9932C16.4682 4.16448 15.4909 3.50683 14.4136 3.05805C13.3362 2.60926 12.1804 2.37816 11.0136 2.37818C9.8491 2.37453 8.6959 2.60115 7.61901 3.04482C6.54213 3.4885 5.56254 4.1405 4.73784 4.9637C3.91313 5.78689 3.25945 6.76495 2.81299 7.84185C2.36652 8.91874 2.13569 10.0733 2.1357 11.2393C2.13205 12.4053 2.35905 13.5605 2.80215 14.6388C3.24525 15.7171 3.89675 16.6973 4.71887 17.523C5.541 18.3488 6.51778 19.004 7.59328 19.4511C8.66877 19.8981 9.822 20.1282 10.9865 20.1282Z" fill="white"/>
<path d="M9.23753 11.2671V8.18385C9.22183 8.06314 9.24277 7.94042 9.29714 7.83154C9.3515 7.72266 9.4378 7.6325 9.54367 7.57265C9.6385 7.51051 9.74866 7.47754 9.86199 7.47754C9.97532 7.47754 10.0868 7.51051 10.1817 7.57265L14.4255 10.6561C14.5194 10.7016 14.5991 10.7725 14.6545 10.8609C14.7098 10.9494 14.7385 11.0517 14.7385 11.1561C14.7385 11.2605 14.7098 11.3627 14.6545 11.4511C14.5991 11.5395 14.5194 11.6106 14.4255 11.6561L10.1817 14.7394C10.0882 14.8051 9.97618 14.8404 9.86199 14.8404C9.7478 14.8404 9.63709 14.8051 9.54367 14.7394C9.43733 14.6874 9.34933 14.6029 9.29443 14.4979C9.23953 14.393 9.21964 14.2731 9.23753 14.156V11.2671Z" fill="white"/>
</g>
<defs>
<clipPath id="clip0_171_2176">
<rect width="21.3333" height="21.3333" fill="white" transform="translate(0.333313 0.600586)"/>
</clipPath>
</defs>
</svg>
