<svg width="23" height="22" viewBox="0 0 23 22" fill="none" xmlns="http://www.w3.org/2000/svg">
<g clip-path="url(#clip0_171_2173)">
<path d="M10.6208 -0.000205277L11.184 0.0471673C13.2814 0.237655 15.2635 1.07786 16.8448 2.44716C18.5611 3.8784 19.723 5.84842 20.1351 8.02491C20.479 9.73925 20.3415 11.5135 19.737 13.1565C19.7285 13.1847 19.7168 13.2119 19.7024 13.2377L16.9545 12.0749C17.0644 12.0749 17.1538 12.0207 17.2363 11.9869L18.1638 11.6556C18.1914 11.6457 18.2157 11.6284 18.2339 11.6057C18.2521 11.5831 18.2634 11.5559 18.2667 11.5272C18.4832 10.4696 18.4832 9.38011 18.2667 8.32251C18.265 8.29775 18.265 8.27283 18.2667 8.24807C17.4514 8.54128 16.6127 8.76742 15.7593 8.92416C15.8177 9.8009 15.7968 10.6811 15.6973 11.5542H15.6151L14.4058 11.0472C14.3372 11.0472 14.3304 10.993 14.3304 10.9321C14.3304 10.3777 14.3304 9.83014 14.3304 9.27574C14.3304 9.27574 14.3304 9.21496 14.3304 9.1744C13.1909 9.31836 12.0442 9.39952 10.8955 9.4177V12.8861H11.026L11.9122 12.8523C11.9603 12.8523 11.9947 12.8523 12.0085 12.9064C12.1184 13.3324 12.235 13.7582 12.3449 14.1842V14.218L10.8955 14.2721V17.3146C11.2852 17.1818 11.6446 16.9749 11.9535 16.706C12.2614 16.4293 12.5357 16.1186 12.7709 15.7798L13.6914 19.1603C13.4372 19.2414 13.1898 19.3224 12.9356 19.39C11.8323 19.6928 10.6852 19.8116 9.542 19.7416C7.44867 19.6218 5.44486 18.8656 3.80701 17.577C2.16916 16.2885 0.978005 14.5313 0.398288 12.5481C0.197706 11.8584 0.0778388 11.1483 0.0410461 10.4318V10.3373V9.438V9.32312C0.0891346 8.9107 0.116761 8.49146 0.192329 8.07905C0.572776 5.99968 1.63433 4.10005 3.21496 2.67032C4.84184 1.1632 6.93283 0.233028 9.15725 0.0268648L9.70703 -0.0205078L10.6208 -0.000205277ZM9.44606 2.46746C9.16325 2.55921 8.89644 2.69385 8.65577 2.86641C8.15597 3.23538 7.73184 3.6942 7.40559 4.2186C6.87152 5.08515 6.48847 6.03342 6.27214 7.02431C6.22406 7.24742 6.17583 7.47729 6.13461 7.7004C7.23034 7.8677 8.33726 7.95592 9.44606 7.96417V2.46746ZM10.8747 2.46746V7.98447C11.9803 7.98001 13.0844 7.90088 14.1791 7.74777C14.1824 7.72762 14.1824 7.70701 14.1791 7.68686C14.0531 6.93484 13.8459 6.19823 13.5609 5.48957C13.2601 4.7231 12.8229 4.01573 12.2694 3.40055C11.9587 3.05178 11.5774 2.77084 11.1498 2.57574C11.0605 2.53419 10.9684 2.49796 10.8747 2.46746ZM5.99038 9.11349C5.99038 9.16081 5.99038 9.20135 5.99038 9.24867C5.95948 9.8303 5.9733 10.4135 6.03164 10.993C6.08659 11.5001 6.17578 12.0004 6.25135 12.5075C6.25135 12.529 6.26004 12.5497 6.2755 12.5649C6.29096 12.5801 6.312 12.5885 6.33387 12.5885C6.47126 12.5885 6.60872 12.6291 6.74612 12.6359C7.4331 12.6967 8.182 12.7576 8.90332 12.8049C9.08881 12.8049 9.27417 12.8049 9.46652 12.8049V9.35695C8.3171 9.33433 7.17009 9.24393 6.03164 9.08642L5.99038 9.11349ZM2.10198 8.07905C2.10198 8.07905 2.10198 8.1129 2.10198 8.12642C1.87658 9.11897 1.84635 10.1448 2.01275 11.1485C2.02367 11.1907 2.04775 11.2285 2.08152 11.2566C2.20438 11.3478 2.3329 11.4314 2.46626 11.5069C3.02188 11.8079 3.61542 12.0353 4.23167 12.183L4.76066 12.3182C4.758 12.2912 4.758 12.2641 4.76066 12.2371C4.69883 11.7233 4.63013 11.2094 4.58892 10.6956C4.54427 10.106 4.54427 9.5138 4.58892 8.92416C4.58892 8.85655 4.58901 8.83634 4.51344 8.82281C4.08752 8.71464 3.66152 8.61322 3.24247 8.478C2.82341 8.34278 2.47982 8.22103 2.10198 8.07905ZM17.8478 6.92296C17.439 5.90818 16.8214 4.98748 16.0341 4.2186C15.2483 3.44741 14.3141 2.83837 13.2862 2.42702C14.5329 3.8814 15.3356 5.6534 15.6013 7.53814C16.3667 7.39705 17.1184 7.19126 17.8478 6.92296ZM4.7402 7.4774C4.89222 6.54876 5.15519 5.64103 5.52345 4.77304C5.88299 3.90754 6.39438 3.11113 7.0346 2.42025C6.11368 2.78499 5.26664 3.30924 4.5339 3.96836C3.68174 4.7317 3.00512 5.66524 2.54878 6.70656C3.24151 7.05753 3.97835 7.31679 4.7402 7.4774ZM6.69111 14.0625L6.80784 14.36C7.12063 15.1083 7.56733 15.7953 8.12678 16.3882C8.43576 16.7134 8.80719 16.9753 9.2193 17.1589L9.44606 17.2469V14.2112L6.69111 14.0625ZM7.02084 17.301C6.88345 17.1388 6.74616 16.9831 6.61563 16.8209C5.95266 15.9453 5.45266 14.9611 5.1387 13.9138C5.13299 13.8806 5.11651 13.8501 5.09174 13.827C5.06697 13.8038 5.0351 13.7891 5.00117 13.7852C4.2095 13.6449 3.43242 13.4346 2.67927 13.1565C2.64957 13.1537 2.61974 13.1537 2.59004 13.1565C3.4774 15.0425 5.06181 16.5247 7.02084 17.301Z" fill="white"/>
<path d="M12.3862 11.1484L23.0068 16.253L18.514 17.1319L21.4544 20.3635L20.6712 21.0396L17.7307 17.808L16.2883 22.0336L12.3862 11.1484Z" fill="white"/>
</g>
<defs>
<clipPath id="clip0_171_2173">
<rect width="23" height="22" fill="white"/>
</clipPath>
</defs>
</svg>
