<svg width="22" height="22" viewBox="0 0 22 22" fill="none" xmlns="http://www.w3.org/2000/svg">
<g clip-path="url(#clip0_171_2171)">
<path d="M21.9999 2.85505V18.1969C21.9999 18.1969 21.9999 18.2361 21.9999 18.2558C21.9999 18.4648 21.9999 18.6739 21.9999 18.9092C21.9935 19.1607 21.9347 19.4079 21.8275 19.6343C21.798 19.7025 21.746 19.758 21.6807 19.7911C21.548 19.8709 21.4 19.92 21.2468 19.9349C20.9723 19.9349 20.704 19.9807 20.4294 19.9807H13.0814C13.0048 19.9807 13.0047 19.9807 13.0047 20.0526V22.0128H11.4086L10.4766 21.8429L8.37612 21.4704L5.56713 20.9673L3.15372 20.5361L0.517119 20.0591L0.0192871 19.9676V2.03176H0.153331L3.27499 1.47631L5.70117 1.04512L8.82314 0.489665L11.1468 0.0715588C11.2788 0.0392052 11.4137 0.0194605 11.5492 0.0126953C12.0153 0.0126953 12.4813 0.0126953 12.9473 0.0126953H13.0047V1.9729C13.0047 2.06437 13.0046 2.05138 13.0876 2.05138H21.0551C21.2318 2.03502 21.4095 2.07364 21.5644 2.16225C21.7194 2.25086 21.8445 2.38533 21.9236 2.54797C21.9581 2.64775 21.9836 2.75052 21.9999 2.85505ZM19.4846 12.532H12.9919V13.8388H19.4846V14.8645H13.0558C12.9856 14.8645 12.9857 14.8645 12.9857 14.9299V16.0733C12.9857 16.0733 12.9857 16.1191 12.9857 16.1453H19.4784V17.1645H12.9919C12.9919 17.1645 12.9919 17.2037 12.9919 17.2168C12.9919 17.7134 12.9919 18.2165 12.9919 18.7196C12.9919 18.7719 12.992 18.772 13.0558 18.772H20.8126V3.28624H13.0558C13.0047 3.28624 12.9919 3.2863 12.9919 3.3451C12.9919 3.75674 12.9919 4.16832 12.9919 4.57996C12.9919 4.57996 12.9919 4.61269 12.9919 4.63882H19.4846V5.66471H12.9919V6.93881H19.4846V7.95815H13.062C12.9854 7.95815 12.9857 7.95807 12.9857 8.03647V8.91209C12.9857 9.0101 12.9857 9.10153 12.9857 9.19301C12.9857 9.28448 12.9854 9.24533 13.0365 9.24533H19.4846V10.2647H12.9919V11.5715H19.4846V12.532ZM5.77131 9.461C5.7705 9.47624 5.7705 9.49139 5.77131 9.50663C5.899 10.16 6.0266 10.8527 6.16066 11.5257C6.35857 12.4993 6.56314 13.4859 6.76105 14.4529C6.76105 14.4529 6.76079 14.4987 6.81187 14.4987C6.91178 14.492 7.01215 14.492 7.11206 14.4987C7.32274 14.4987 7.53342 14.5378 7.75048 14.5574C7.92809 14.5764 8.10743 14.5518 8.27388 14.4856C8.28924 14.4806 8.30295 14.4711 8.31315 14.4583C8.32336 14.4456 8.32982 14.4301 8.33155 14.4137C8.58053 13.3552 8.83569 12.2902 9.0719 11.2317C9.34004 10.0294 9.60407 8.82717 9.86369 7.62491L9.99774 7.02367L8.49739 7.10216L7.60366 12.3882V12.3294C7.36106 11.1271 7.11853 9.93137 6.88232 8.72912C6.78655 8.25214 6.69083 7.77519 6.60145 7.29821C6.60145 7.259 6.60124 7.24589 6.54378 7.24589L5.20958 7.31783C5.17766 7.31783 5.16484 7.31771 5.15845 7.36345L5.08177 7.73594C4.77533 9.18649 4.44353 10.6304 4.15625 12.081C4.15625 12.1529 4.15605 12.2248 4.11136 12.2967L3.33266 7.45502L2.05581 7.50718C2.052 7.53098 2.052 7.55533 2.05581 7.57913L2.72603 11.127C2.92394 12.1529 3.12835 13.1789 3.31988 14.1982C3.31988 14.2439 3.31979 14.2569 3.39001 14.2569L4.71143 14.3419C4.76251 14.3419 4.7819 14.3418 4.79467 14.2765C4.9415 13.5512 5.10108 12.8259 5.24792 12.1006C5.39476 11.3753 5.56057 10.5847 5.70741 9.82025C5.72656 9.70917 5.75216 9.58515 5.77131 9.461Z" fill="white"/>
</g>
<defs>
<clipPath id="clip0_171_2171">
<rect width="22" height="22" fill="white"/>
</clipPath>
</defs>
</svg>
