<svg width="19" height="21" viewBox="0 0 19 21" fill="none" xmlns="http://www.w3.org/2000/svg">
<g clip-path="url(#clip0_330_50)">
<path d="M17.7117 7.50869H17.2767V7.28757C17.2767 6.60249 17.2767 5.92278 17.2767 5.23771C17.2819 5.01045 17.1971 4.78998 17.04 4.62268C15.737 3.1842 14.4376 1.72963 13.1419 0.258781C13.0759 0.177926 12.9921 0.112642 12.8968 0.0678212C12.8015 0.023 12.6971 -0.000199081 12.5914 -0.000134336H2.73081C2.59647 -0.0200605 2.45925 -0.00899648 2.33012 0.0323948C2.20099 0.073786 2.08356 0.144239 1.98722 0.238105C1.89088 0.331971 1.81835 0.446724 1.77538 0.57301C1.73242 0.699296 1.72018 0.833608 1.73976 0.965334V7.50329H1.31031C1.14155 7.49338 0.972559 7.51818 0.81418 7.57612C0.655802 7.63405 0.511604 7.72379 0.390772 7.83964C0.26994 7.95549 0.175224 8.09494 0.112667 8.24882C0.0501106 8.4027 0.0211319 8.56768 0.0275822 8.7332C0.0275822 10.7399 0.0275822 12.7519 0.0275822 14.7586C0.0204623 14.9222 0.0481826 15.0854 0.109172 15.2378C0.170162 15.3903 0.263081 15.5286 0.381767 15.6439C0.500453 15.7591 0.642336 15.8488 0.798454 15.9072C0.954572 15.9657 1.1215 15.9915 1.2884 15.9831C1.42604 15.9831 1.56909 15.9831 1.73976 15.9831V16.2312C1.73976 17.4611 1.73976 18.6911 1.73976 19.921C1.70416 20.1495 1.75198 20.383 1.87485 20.5804C1.99772 20.7777 2.18775 20.9263 2.41144 20.9998H16.6436C16.8669 20.9262 17.0563 20.7774 17.1783 20.5798C17.3003 20.3823 17.3468 20.1489 17.3098 19.921C17.3098 18.6965 17.3098 17.4719 17.3098 16.2474V15.9831C17.4694 15.9831 17.6071 15.9831 17.7447 15.9831C17.913 15.9939 18.0817 15.9697 18.2398 15.9124C18.3979 15.855 18.5419 15.7657 18.6624 15.6502C18.7829 15.5347 18.8772 15.3955 18.9391 15.2419C19.0011 15.0883 19.0294 14.9236 19.0221 14.7586C19.0221 12.7519 19.0221 10.7399 19.0221 8.7332C19.029 8.56546 18.9994 8.39813 18.9351 8.2425C18.8709 8.08687 18.7735 7.94655 18.6495 7.83068C18.5255 7.71482 18.3777 7.6261 18.216 7.57058C18.0543 7.51507 17.8823 7.49398 17.7117 7.50869ZM2.57663 0.835876H12.2997V4.887C12.2997 5.31315 12.4427 5.45343 12.8777 5.45343H16.4234V7.49789H2.57663V0.835876ZM11.5674 13.4802V14.5591H8.33552V8.7656H9.77807V13.4856L11.5674 13.4802ZM1.93252 14.5591L3.79336 11.6623L1.93252 8.7656H3.58421L4.68534 10.4594L5.69292 8.7656H7.34461L5.47261 11.6677L7.33359 14.5591H5.6819L4.58077 12.876L3.58421 14.5591H1.93252ZM16.4179 19.9534H16.1921H2.80245C2.60975 19.9534 2.55459 19.9047 2.55459 19.7159C2.55459 18.5454 2.55459 17.3802 2.55459 16.2096C2.55459 16.1449 2.55459 16.0748 2.55459 15.9993H16.4014L16.4179 19.9534ZM17.519 14.5591H15.8673L14.7662 12.876L13.7642 14.5591H12.1125L13.9733 11.6623L12.1125 8.7656H13.7642L14.8653 10.4594L15.8784 8.7656H17.5301L15.6636 11.6677L17.519 14.5591Z" fill="white"/>
</g>
<defs>
<clipPath id="clip0_330_50">
<rect width="19" height="21" fill="white"/>
</clipPath>
</defs>
</svg>
