<svg width="19" height="22" viewBox="0 0 19 22" fill="none" xmlns="http://www.w3.org/2000/svg">
<g clip-path="url(#clip0_330_65)">
<path d="M17.7169 7.86682H17.2818V7.63517C17.2818 6.91747 17.2818 6.20539 17.2818 5.4877C17.2868 5.25067 17.2042 5.02042 17.0505 4.84339C15.7471 3.33641 14.4455 1.81256 13.1458 0.271678C13.0769 0.183142 12.9887 0.112394 12.8882 0.0652776C12.7878 0.0181607 12.6779 -0.00399583 12.5675 0.000432639H2.7041C2.57015 -0.0194593 2.43349 -0.00708293 2.30504 0.0367182C2.1766 0.0805194 2.05991 0.154428 1.9642 0.252638C1.86849 0.350848 1.79647 0.470722 1.75378 0.602525C1.7111 0.734328 1.6989 0.874418 1.71829 1.01188V7.86116H1.28319C1.11442 7.84981 0.9452 7.87523 0.786652 7.93566C0.628105 7.99609 0.483885 8.09023 0.363256 8.21187C0.242627 8.33352 0.148322 8.47989 0.0866833 8.64151C0.0250451 8.80312 -0.00264715 8.97629 0.00547295 9.14964C0.00547295 11.2519 0.00547295 13.3597 0.00547295 15.462C-0.00244387 15.6331 0.024694 15.8039 0.0850699 15.9636C0.145446 16.1233 0.237834 16.2682 0.35613 16.3891C0.474425 16.51 0.61597 16.6041 0.771862 16.6653C0.927754 16.7266 1.09444 16.7537 1.26114 16.7448C1.40433 16.7448 1.54205 16.7448 1.71829 16.7448V17.0047C1.71829 18.2932 1.71829 19.5817 1.71829 20.8702C1.68009 21.1091 1.72615 21.3542 1.8483 21.5614C1.97045 21.7686 2.16065 21.9242 2.38464 22.0004H16.6209C16.8449 21.9242 17.0351 21.7686 17.1573 21.5614C17.2794 21.3542 17.3255 21.1091 17.2873 20.8702C17.2873 19.5873 17.2873 18.3045 17.2873 17.0217V16.7448C17.447 16.7448 17.5847 16.7448 17.7224 16.7448C17.8907 16.7561 18.0593 16.7308 18.2174 16.6707C18.3756 16.6106 18.5196 16.517 18.6402 16.396C18.7607 16.275 18.8551 16.1292 18.9171 15.9683C18.9791 15.8074 19.0073 15.6348 19 15.462C19 13.3597 19 11.2519 19 9.14964C19.0074 8.97624 18.9791 8.80313 18.9167 8.64178C18.8544 8.48043 18.7596 8.33451 18.6384 8.21339C18.5173 8.09228 18.3725 7.99869 18.2137 7.93897C18.0549 7.87925 17.8856 7.85471 17.7169 7.86682ZM16.4281 20.8928H16.1969H2.8032C2.61595 20.8928 2.5554 20.8418 2.5554 20.644C2.5554 19.4177 2.5554 18.1971 2.5554 16.9708C2.5554 16.903 2.5554 16.8296 2.5554 16.7504H16.4116L16.4281 20.8928ZM4.10297 10.5568V9.56217H7.81484V10.5568L5.57887 13.9475H7.81484V14.9477H4.10297V13.9475L6.33881 10.5568H4.10297ZM8.89976 14.9534V9.56217H10.183V14.9534H8.89976ZM11.4551 14.9534V9.56217H13.5258C14.0436 9.52902 14.5542 9.701 14.9522 10.0426C15.1133 10.189 15.2419 10.3692 15.3294 10.571C15.4168 10.7728 15.4609 10.9914 15.4588 11.2123C15.452 11.5967 15.318 11.9674 15.0789 12.2634C14.916 12.4574 14.7074 12.6053 14.473 12.6929C14.17 12.8079 13.8487 12.8635 13.5258 12.8568H12.7328V14.9534H11.4551ZM16.4116 7.8555H2.5554V0.876253H12.2867V5.12029C12.2867 5.56673 12.4243 5.71369 12.8374 5.71369H16.3895L16.4116 7.8555ZM13.9664 11.6814C14.0225 11.6192 14.066 11.5462 14.0944 11.4667C14.1228 11.3871 14.1354 11.3025 14.1316 11.2179C14.1353 11.1311 14.122 11.0444 14.0926 10.963C14.0633 10.8815 14.0186 10.8069 13.9609 10.7433C13.9021 10.6806 13.8309 10.6314 13.7521 10.5993C13.6732 10.5671 13.5885 10.5526 13.5037 10.5568H12.7107V11.8566H13.5037C13.5921 11.8656 13.6814 11.8546 13.7651 11.8243C13.8489 11.794 13.9251 11.7452 13.9884 11.6814H13.9664Z" fill="white"/>
</g>
<defs>
<clipPath id="clip0_330_65">
<rect width="19" height="22" fill="white"/>
</clipPath>
</defs>
</svg>
