<svg width="26" height="26" viewBox="0 0 26 26" fill="none" xmlns="http://www.w3.org/2000/svg">
<g clip-path="url(#clip0_107_364)">
<path d="M25.9362 14.3767C26.0414 13.5794 25.9907 12.7688 25.7869 11.9914C25.7548 11.856 25.7548 11.7148 25.7869 11.5794C25.9443 11.0268 25.9807 10.4457 25.8935 9.87716C25.8167 9.51667 25.6683 9.1759 25.4575 8.87574C25.2468 8.57559 24.978 8.32237 24.6677 8.13156C24.6002 8.08127 24.5423 8.01878 24.4971 7.94722C24.207 8.38792 23.8467 8.77634 23.4311 9.09651L23.5803 9.18327L23.8255 9.35672C24.0791 9.51211 24.2751 9.74838 24.3831 10.0288C24.491 10.3092 24.5048 10.618 24.4224 10.9072C24.4154 11.0037 24.3753 11.0946 24.309 11.1639C24.2428 11.2333 24.1546 11.2767 24.06 11.2867C23.5582 11.3962 23.0351 11.3392 22.5675 11.124C22.5082 11.0897 22.4428 11.0679 22.3751 11.0597C22.3073 11.0515 22.2387 11.0572 22.1731 11.0763C22.1076 11.0955 22.0465 11.1279 21.9934 11.1714C21.9403 11.215 21.8964 11.2689 21.8641 11.33C21.833 11.3904 21.8141 11.4564 21.8086 11.5242C21.8031 11.5921 21.811 11.6604 21.8319 11.725C21.8528 11.7897 21.8862 11.8495 21.9302 11.9008C21.9741 11.9522 22.0277 11.9941 22.0879 12.024C22.4145 12.2098 22.7799 12.3139 23.1539 12.3275C23.527 12.3275 23.8895 12.3275 24.2839 12.3275C24.4903 12.9838 24.5161 13.685 24.3585 14.3551C24.2983 14.5467 24.1945 14.7211 24.0555 14.8643C23.9166 15.0075 23.7465 15.1153 23.559 15.1791C22.9897 15.3899 22.3828 15.4749 21.7787 15.4284C21.7787 15.4284 21.6828 15.3634 21.6614 15.3092C21.6401 15.255 21.6615 15.0706 21.6082 14.9514C21.5711 14.8224 21.5693 14.6855 21.6031 14.5555C21.637 14.4256 21.705 14.3075 21.8 14.2141C21.8448 14.1697 21.8805 14.1166 21.9048 14.0579C21.9291 13.9992 21.9416 13.9362 21.9416 13.8726C21.9416 13.8089 21.9291 13.7459 21.9048 13.6872C21.8805 13.6286 21.8448 13.5755 21.8 13.531C21.7056 13.4426 21.582 13.3936 21.4536 13.3936C21.3253 13.3936 21.2015 13.4426 21.1071 13.531C20.9105 13.7074 20.7642 13.9344 20.6835 14.1881C20.6029 14.4419 20.5909 14.713 20.6488 14.9731C20.6488 15.1466 20.6487 15.32 20.734 15.4935C20.8193 15.667 20.734 15.6995 20.5954 15.7537C20.4959 15.7964 20.3891 15.8183 20.281 15.8183C20.173 15.8183 20.0661 15.7964 19.9665 15.7537C19.7324 15.6646 19.5045 15.5595 19.2843 15.4393C19.1216 15.32 18.9199 15.2692 18.7213 15.2975C18.5227 15.3258 18.3425 15.4309 18.2182 15.5911C18.0237 15.8162 17.8097 16.023 17.5787 16.2091C17.391 16.3233 17.1905 16.4143 16.9816 16.4802C16.8964 16.4802 16.8538 16.4802 16.8112 16.4043C16.7207 16.2673 16.6621 16.1111 16.6399 15.9477C16.6178 15.7842 16.6326 15.6177 16.6833 15.461C16.7061 15.3956 16.7152 15.3261 16.7102 15.2569C16.7051 15.1877 16.686 15.1203 16.6538 15.0591C16.6217 14.9979 16.5774 14.9441 16.5237 14.9013C16.47 14.8585 16.4082 14.8275 16.3421 14.8104C16.2755 14.7927 16.2062 14.7889 16.1381 14.799C16.0701 14.8092 16.0048 14.8332 15.9461 14.8697C15.8874 14.9061 15.8365 14.9542 15.7964 15.0111C15.7564 15.068 15.7281 15.1325 15.7132 15.2008C15.6148 15.4816 15.5857 15.7826 15.6284 16.0775C15.6712 16.3724 15.7845 16.6522 15.9583 16.8922C15.9785 16.9095 15.9947 16.9311 16.0058 16.9554C16.0169 16.9798 16.0227 17.0063 16.0227 17.0331C16.0227 17.06 16.0169 17.0865 16.0058 17.1109C15.9947 17.1352 15.9785 17.1568 15.9583 17.1741C15.7573 17.3779 15.5146 17.5341 15.2474 17.6316C14.9802 17.729 14.6952 17.7653 14.4126 17.7379C14.0206 17.6574 13.6356 17.545 13.2613 17.4018C13.2613 17.4018 13.1974 17.4018 13.1867 17.3259C13.1867 16.903 13.1867 16.4802 13.1867 16.0573C13.1896 15.9573 13.215 15.8592 13.2613 15.7708C13.3075 15.6824 13.3732 15.6061 13.4532 15.5477L13.869 15.1682C13.9704 15.0817 14.0341 14.9579 14.0461 14.8239C14.0581 14.6898 14.0173 14.5563 13.9329 14.4526C13.8899 14.4007 13.8372 14.3581 13.7778 14.3272C13.7184 14.2963 13.6535 14.2778 13.587 14.2728C13.5205 14.2677 13.4536 14.2762 13.3904 14.2978C13.3271 14.3194 13.2688 14.3536 13.2187 14.3984L13.144 14.4635C12.7539 14.7263 12.4513 15.1033 12.2762 15.5446C12.1011 15.986 12.0617 16.471 12.1633 16.9356C12.1633 17.0331 12.1633 17.1415 12.1633 17.2825H11.2253C10.2199 17.2262 9.25267 16.8719 8.44288 16.2633C8.40417 16.2385 8.37347 16.2026 8.35453 16.1603C8.33558 16.1179 8.32925 16.0708 8.33631 16.0248C8.33293 15.8606 8.38355 15.7 8.4801 15.5684C8.57665 15.4368 8.71362 15.3418 8.86931 15.2983C8.9616 15.2717 9.05091 15.2353 9.13582 15.1899C9.25025 15.1334 9.33922 15.0347 9.38475 14.9139C9.43028 14.7931 9.42894 14.6592 9.38098 14.5394C9.33339 14.4205 9.24265 14.3249 9.12749 14.2723C9.01233 14.2198 8.88166 14.2145 8.76274 14.2575C8.57801 14.3203 8.39655 14.3927 8.21906 14.4743C7.98491 14.6004 7.78477 14.783 7.63609 15.006C7.48741 15.2291 7.39468 15.4858 7.3662 15.7537C7.3129 16.0682 7.31293 16.0681 6.99313 16.1007C6.50945 16.1678 6.0177 16.1421 5.54337 16.0248C5.32179 15.9563 5.1103 15.8578 4.91446 15.732C4.73919 15.61 4.52964 15.5491 4.31743 15.5586C3.96255 15.5844 3.6063 15.5844 3.25142 15.5586C2.8403 15.5446 2.45038 15.3701 2.1625 15.0713C1.87463 14.7724 1.71101 14.3722 1.70575 13.9539C1.68444 13.5241 1.68444 13.0935 1.70575 12.6637C1.70575 12.5661 1.70577 12.5227 1.85501 12.4902C2.14967 12.4502 2.44867 12.5194 2.6972 12.6853C2.82036 12.7574 2.96006 12.7949 3.10216 12.7938C3.2016 12.7855 3.29553 12.7436 3.36892 12.6749C3.44231 12.6061 3.49095 12.5144 3.50725 12.4143C3.53319 12.3142 3.52645 12.2082 3.48799 12.1124C3.44953 12.0166 3.38149 11.936 3.2941 11.883C3.05666 11.7087 2.78643 11.586 2.50032 11.5226C2.2142 11.4592 1.91841 11.4564 1.63119 11.5144H1.56717C1.45533 11.1288 1.45632 10.7184 1.5699 10.3334C1.68348 9.94829 1.9047 9.6052 2.20675 9.3459L2.49459 9.57358C2.85226 9.85714 3.26666 10.0575 3.70869 10.1605C4.15072 10.2636 4.60966 10.2667 5.05304 10.1699C5.38351 10.1048 5.7139 9.97474 6.04436 9.87716C6.3084 9.78337 6.57931 9.71085 6.85454 9.6603C7.13923 9.60088 7.43456 9.62318 7.70753 9.72466C7.9805 9.82614 8.22042 10.0028 8.40033 10.2349C8.45575 10.3144 8.53236 10.3761 8.62116 10.4126C8.70996 10.4491 8.80719 10.4589 8.90133 10.441C8.98702 10.4271 9.06749 10.3903 9.13465 10.3344C9.20181 10.2786 9.25329 10.2056 9.28364 10.1229C9.31399 10.0402 9.32218 9.9508 9.30746 9.86383C9.29274 9.77685 9.25562 9.69538 9.19984 9.62778C8.98095 9.33392 8.70151 9.09237 8.38107 8.92005C8.06064 8.74773 7.707 8.64884 7.34499 8.6303C7.05287 8.63247 6.76101 8.65055 6.47079 8.68449H6.31086V7.92555C6.31679 7.8565 6.3085 7.78694 6.28653 7.72133C6.26455 7.65572 6.22948 7.59548 6.18334 7.54447C6.1372 7.49346 6.08105 7.45282 6.01859 7.42509C5.95614 7.39736 5.88869 7.38317 5.82054 7.38343C5.75244 7.38342 5.68501 7.3972 5.62222 7.42403C5.55944 7.45086 5.50254 7.49019 5.45488 7.53967C5.40722 7.58915 5.36974 7.6478 5.34466 7.7122C5.31958 7.77659 5.30746 7.84544 5.30888 7.9147C5.30888 8.15323 5.30888 8.40262 5.30888 8.64115C5.30888 8.87968 5.22356 9.09651 4.87177 9.16156C4.52919 9.22974 4.17582 9.21628 3.83921 9.12222C3.50259 9.02816 3.19195 8.85607 2.93169 8.61944C2.9127 8.57069 2.9127 8.51642 2.93169 8.46767C3.11291 8.05566 3.29417 7.64364 3.49671 7.24247C3.80554 6.62675 4.31932 6.14259 4.94647 5.87633C5.25561 5.73537 5.58608 5.63779 5.88456 5.49684C6.0528 5.42684 6.2078 5.32781 6.34287 5.2041C6.55608 5.04147 6.73736 4.85714 6.9399 4.68366C7.01963 4.63258 7.10565 4.59249 7.19573 4.56441C7.4729 4.46683 7.55816 4.49935 7.7074 4.75956C7.85664 5.01978 7.98458 5.24747 8.12316 5.50769C8.15737 5.55019 8.18151 5.60013 8.19369 5.65364C8.20587 5.70716 8.20567 5.7628 8.1933 5.81627C8.18093 5.86974 8.15674 5.91961 8.12238 5.96199C8.08802 6.00437 8.0445 6.03813 7.99524 6.06066C7.85693 6.1565 7.71066 6.23992 7.55814 6.31001C7.49378 6.33401 7.43488 6.37095 7.38481 6.41858C7.33475 6.4662 7.2945 6.52358 7.26665 6.58729C7.23881 6.65101 7.22388 6.71975 7.22267 6.78946C7.22146 6.85917 7.23402 6.92841 7.25963 6.99309C7.2868 7.05899 7.32737 7.11835 7.37857 7.1673C7.42976 7.21625 7.49049 7.2537 7.55684 7.27722C7.62319 7.30073 7.6936 7.30977 7.76361 7.30379C7.83363 7.2978 7.90167 7.27693 7.96323 7.24247C8.24039 7.11237 8.50694 6.93889 8.80542 6.76541C8.98933 6.89667 9.1976 6.9884 9.41754 7.03501C9.63749 7.08162 9.86444 7.08211 10.0846 7.03647C10.154 7.04148 10.2236 7.03107 10.2886 7.00599C10.3537 6.98091 10.4126 6.94175 10.4613 6.89121C10.51 6.84067 10.5472 6.77998 10.5705 6.71333C10.5938 6.64667 10.6026 6.57565 10.5962 6.5052C10.5923 6.43624 10.5747 6.3688 10.5443 6.307C10.514 6.24521 10.4716 6.19035 10.4198 6.14573C10.3679 6.10111 10.3076 6.06767 10.2427 6.04746C10.1777 6.02724 10.1094 6.02067 10.0419 6.02813C9.87506 6.03885 9.70775 6.03885 9.54091 6.02813C9.50114 6.02324 9.4631 6.00891 9.42978 5.98631C9.39645 5.96371 9.36883 5.93345 9.3491 5.898C9.23184 5.62694 9.1465 5.34504 9.02924 5.08482C8.90343 4.82129 8.76466 4.56437 8.61348 4.31502C8.75027 4.11485 8.94459 3.96261 9.16978 3.87915C9.39497 3.79568 9.64009 3.78508 9.87143 3.84881C9.9773 3.88262 10.0889 3.89335 10.1991 3.88027C10.3093 3.8672 10.4156 3.8306 10.511 3.7729C10.8273 3.5577 11.1967 3.43745 11.577 3.42594C11.8467 3.45181 12.114 3.49894 12.3765 3.5669C12.399 3.57853 12.4184 3.5954 12.4333 3.61613C12.4481 3.63686 12.4578 3.66087 12.4618 3.68618C12.4894 4.68597 12.6472 5.67763 12.9309 6.6353C12.9707 6.80174 12.9734 6.97511 12.9388 7.14275C12.9042 7.31038 12.8332 7.46801 12.731 7.60416C12.6288 7.74031 12.498 7.85151 12.3482 7.92962C12.1983 8.00773 12.0332 8.05081 11.8649 8.05565C11.795 8.0512 11.725 8.06138 11.6591 8.08553C11.5933 8.10969 11.5331 8.1473 11.4822 8.19608C11.4312 8.24486 11.3907 8.30374 11.363 8.3691C11.3353 8.43446 11.3211 8.50489 11.3212 8.57606C11.3236 8.64699 11.3405 8.71663 11.3709 8.78052C11.4013 8.8444 11.4445 8.90112 11.4976 8.94705C11.5508 8.99298 11.6128 9.02711 11.6797 9.04724C11.7466 9.06738 11.817 9.07309 11.8862 9.06398C12.3796 9.02152 12.8431 8.80567 13.1971 8.45351C13.5511 8.10134 13.7736 7.63484 13.8263 7.13404C13.823 7.07627 13.823 7.01834 13.8263 6.96056L14.178 7.03647C14.2446 7.05239 14.3136 7.0546 14.381 7.04295C14.4484 7.0313 14.5129 7.00603 14.5705 6.96864C14.6281 6.93124 14.6778 6.88248 14.7166 6.82523C14.7554 6.76798 14.7825 6.70339 14.7964 6.6353C14.807 6.56908 14.8047 6.50136 14.7895 6.43605C14.7743 6.37073 14.7467 6.30912 14.708 6.25472C14.6694 6.20032 14.6206 6.15419 14.5644 6.11903C14.5082 6.08386 14.4458 6.06035 14.3806 6.04981L13.8476 5.898C13.7584 5.88002 13.6771 5.83352 13.6157 5.76525C13.5544 5.69697 13.5161 5.61053 13.5064 5.51854C13.4425 4.98727 13.3679 4.43429 13.304 3.91386C13.2913 3.85491 13.302 3.79325 13.334 3.74243C13.366 3.6916 13.4166 3.65577 13.4746 3.6428C13.688 3.54761 13.9091 3.47143 14.1355 3.41512C14.1513 3.20783 14.1943 3.00363 14.2634 2.80795L14.3913 2.50436L14.4552 2.3417C14.5298 2.17907 14.6045 2.02728 14.6898 1.87549C14.1603 1.9111 13.6391 2.02809 13.144 2.22245C12.9913 2.27082 12.8278 2.27082 12.675 2.22245C11.7817 1.92937 10.8131 1.98343 9.95667 2.37423C9.91099 2.38419 9.86375 2.38419 9.81808 2.37423C9.43784 2.32822 9.05234 2.36224 8.68557 2.47415C8.3188 2.58607 7.9786 2.77348 7.68606 3.02478C7.63927 3.05867 7.58356 3.07757 7.52613 3.07901C7.17391 3.03964 6.81748 3.08159 6.48341 3.20173C6.14935 3.32188 5.84632 3.5171 5.59672 3.7729C5.326 4.03036 5.00691 4.22952 4.65862 4.3584C3.5366 4.73583 2.59852 5.53474 2.03615 6.59193C1.82295 7.00394 1.65247 7.42679 1.46059 7.84964C1.41138 7.94962 1.34237 8.0382 1.25798 8.10985C0.597696 8.62247 0.152291 9.36989 0.0108331 10.2024C-0.0797829 10.8025 -0.0797829 11.4131 0.0108331 12.0131C0.0589836 12.2886 0.080339 12.5682 0.0747261 12.848C0.0390309 13.3592 0.0677731 13.8729 0.16009 14.3767C0.247025 14.9501 0.494139 15.486 0.872152 15.9204C1.25017 16.3549 1.74313 16.6696 2.29211 16.8271C2.83608 16.9822 3.40216 17.0408 3.96569 17.0006C4.08716 17.0076 4.20632 17.0369 4.31743 17.0873C4.57327 17.1849 4.81855 17.315 5.08505 17.3909C5.85716 17.5805 6.65981 17.6026 7.4409 17.456C7.53118 17.4442 7.62251 17.4674 7.69673 17.521C8.34712 17.9658 9.06851 18.2923 9.82875 18.486C9.89479 18.4944 9.95641 18.5243 10.0044 18.5712C10.0524 18.6181 10.0843 18.6794 10.0953 18.7462C10.3085 19.4618 10.511 20.1774 10.7562 20.9147C10.9511 21.5066 11.2718 22.0477 11.6956 22.4993C12.1193 22.9509 12.6358 23.302 13.2081 23.5277C13.4302 23.625 13.6382 23.7526 13.8263 23.9072C14.259 24.2473 14.6213 24.671 14.8923 25.1541C15.0115 25.3767 15.1809 25.5675 15.3865 25.7107C15.5922 25.8539 15.8283 25.9456 16.0756 25.9781C16.644 26.0713 17.2258 26.0351 17.7788 25.872C18.3318 25.7089 18.8424 25.4229 19.2736 25.0348C19.4082 24.9317 19.5089 24.7893 19.5622 24.6267C19.6155 24.464 19.619 24.2887 19.5721 24.1241C19.5027 23.8362 19.4137 23.5536 19.3056 23.2783C19.199 22.9856 19.0711 22.7037 18.9432 22.3893H19.0178C19.6384 22.3359 20.2449 22.1706 20.8087 21.9013C21.9049 21.3665 22.912 20.6604 23.7935 19.8088C23.9905 19.6373 24.1724 19.4487 24.3371 19.245C24.6698 18.834 24.8983 18.3462 25.0024 17.8244C25.1064 17.3026 25.083 16.7629 24.9342 16.2525C24.9188 16.2177 24.9169 16.1784 24.9287 16.1422C24.9406 16.106 24.9653 16.0757 24.9981 16.0573C25.4935 15.6253 25.8253 15.0309 25.9362 14.3767ZM17.9944 24.1349C17.7598 24.2927 17.4967 24.4018 17.2204 24.4557C16.9442 24.5097 16.6602 24.5075 16.3847 24.4493C16.3215 24.4251 16.2687 24.379 16.2355 24.3192C15.9796 23.9939 15.7558 23.647 15.4893 23.3434C15.0113 22.7614 14.3947 22.3135 13.6984 22.0423C13.3465 21.8998 13.0307 21.6787 12.7742 21.3953C12.5177 21.1119 12.3272 20.7735 12.2166 20.4051C12.0141 19.8413 11.8328 19.3209 11.6302 18.6703C12.0289 18.6076 12.4364 18.6335 12.8243 18.7462C13.1387 18.8805 13.463 18.9893 13.7943 19.0715C14.2826 19.1969 14.7972 19.1627 15.2654 18.9739L16.0223 18.6812C16.0863 19.1691 16.1182 19.657 16.2141 20.134C16.3352 20.7203 16.6424 21.2498 17.0883 21.6411C17.0883 21.6411 17.1629 21.7062 17.1736 21.7496L18.069 23.918C18.0903 24.059 18.0904 24.1132 17.9944 24.1674V24.1349ZM23.4949 17.9222C23.3776 18.0992 23.2417 18.2627 23.0899 18.4101C22.1803 19.347 21.092 20.085 19.8918 20.5786C19.5231 20.7429 19.1208 20.8136 18.7192 20.7846C18.5514 20.7658 18.3898 20.7094 18.246 20.6194C18.1022 20.5294 17.9799 20.4081 17.8879 20.2641C17.6924 19.996 17.5642 19.6833 17.5146 19.3534C17.4221 18.8738 17.4478 18.3784 17.5893 17.9114C17.6206 17.8456 17.6684 17.7895 17.7279 17.7487C18.1507 17.5631 18.5399 17.3065 18.8792 16.9898C18.9085 16.9631 18.9464 16.9483 18.9857 16.9483C19.0251 16.9483 19.063 16.9631 19.0923 16.9898C19.4647 17.1898 19.8822 17.287 20.303 17.2718C20.7239 17.2566 21.1334 17.1294 21.4908 16.903C21.5292 16.8924 21.5698 16.8924 21.6082 16.903C22.2622 16.9389 22.918 16.8878 23.559 16.7512C23.6608 16.9415 23.7087 17.1567 23.6974 17.373C23.6861 17.5893 23.616 17.7982 23.4949 17.9764V17.9222Z" fill="#FCFCFC"/>
<path d="M6.16148 13.336C5.92928 13.6652 5.60107 13.9118 5.22339 14.0407C4.93507 14.1515 4.68615 14.3479 4.50912 14.6045C4.47309 14.6594 4.42626 14.7061 4.37157 14.7417C4.31688 14.7772 4.25547 14.8009 4.19134 14.811C4.12722 14.8212 4.06176 14.8178 3.99901 14.8009C3.93627 14.784 3.87763 14.7541 3.82685 14.7129C3.72347 14.6403 3.65146 14.53 3.62568 14.405C3.59989 14.2799 3.62228 14.1495 3.68827 14.0407C3.86272 13.7406 4.11308 13.4935 4.41321 13.3251L5.04212 13.0107C5.14696 12.9637 5.23829 12.8902 5.30732 12.7972C5.37636 12.7042 5.42081 12.5948 5.43654 12.4794C5.46826 12.3366 5.48957 12.1917 5.50043 12.0457C5.49459 11.9773 5.50224 11.9084 5.52268 11.843C5.54313 11.7776 5.57603 11.717 5.61963 11.6645C5.66323 11.6121 5.71665 11.569 5.7767 11.5377C5.83675 11.5063 5.90227 11.4874 5.96955 11.4819C6.21473 11.4819 6.41728 11.6229 6.51322 11.9156C6.55956 12.0849 6.62383 12.2484 6.70503 12.4035C6.72628 12.4649 6.76063 12.5209 6.80549 12.5674C6.85035 12.6139 6.90464 12.6498 6.96464 12.6725C7.02464 12.6953 7.08885 12.7043 7.15267 12.6991C7.2165 12.6938 7.27846 12.6743 7.33407 12.642C7.55509 12.5404 7.76572 12.417 7.96298 12.2734C8.16308 12.1334 8.35202 11.9775 8.528 11.8072C8.57401 11.7541 8.63063 11.7116 8.69404 11.6825C8.75745 11.6534 8.82617 11.6383 8.89574 11.6383C8.96531 11.6383 9.03403 11.6534 9.09744 11.6825C9.16085 11.7116 9.21747 11.7541 9.26348 11.8072C9.31391 11.8539 9.35421 11.9109 9.38177 11.9744C9.40933 12.0378 9.42354 12.1064 9.42354 12.1758C9.42354 12.2452 9.40933 12.3139 9.38177 12.3773C9.35421 12.4408 9.31391 12.4977 9.26348 12.5445C8.81335 13.039 8.24921 13.4117 7.62191 13.6287C7.37488 13.7164 7.10931 13.7355 6.8526 13.6841C6.59588 13.6326 6.35732 13.5125 6.16148 13.336Z" fill="#FCFCFC"/>
<path d="M14.8174 11.9482C14.6442 12.3235 14.3563 12.6316 13.9966 12.8265C13.8233 12.9371 13.6267 13.0045 13.423 13.0234C13.2192 13.0422 13.0141 13.0119 12.824 12.9349C12.7041 12.895 12.604 12.8095 12.5445 12.6965C12.4849 12.5834 12.4704 12.4514 12.5041 12.3277C12.5391 12.2037 12.6191 12.0977 12.728 12.0313C12.8368 11.9649 12.9664 11.9429 13.0905 11.9699C13.2273 11.9897 13.3667 11.9731 13.4953 11.9217C13.6239 11.8703 13.7373 11.7859 13.8243 11.6767C13.9113 11.5675 13.9689 11.4372 13.9916 11.2986C14.0144 11.1599 14.0013 11.0177 13.9539 10.8857C13.8051 10.4882 13.7397 10.0635 13.762 9.63882C13.7574 9.56735 13.7678 9.49569 13.7923 9.42854C13.8168 9.36139 13.8549 9.30026 13.9042 9.2491C13.9535 9.19795 14.0128 9.15793 14.0783 9.13167C14.1438 9.10541 14.2141 9.0935 14.2844 9.0967C14.3542 9.09913 14.4225 9.11635 14.4853 9.14726C14.5482 9.17816 14.604 9.22207 14.6492 9.27617C14.6943 9.33027 14.7279 9.39335 14.7477 9.4614C14.7675 9.52945 14.773 9.60096 14.7641 9.67134C14.7351 9.98193 14.7827 10.295 14.9027 10.5821C15.0134 10.8162 15.2079 10.9985 15.4463 11.0917C15.6915 11.1784 15.9473 11.2435 16.1925 11.3086C16.26 11.3201 16.3244 11.3455 16.3818 11.3833C16.4393 11.4212 16.4886 11.4705 16.5265 11.5284C16.5645 11.5863 16.5903 11.6515 16.6025 11.72C16.6148 11.7885 16.6131 11.8588 16.5976 11.9266C16.5828 11.9933 16.5549 12.0561 16.5152 12.1113C16.4756 12.1665 16.4251 12.2129 16.3671 12.2474C16.3091 12.282 16.2449 12.3041 16.1782 12.3123C16.1115 12.3205 16.0438 12.3147 15.9793 12.2952C15.5956 12.1868 15.2225 12.0675 14.8174 11.9482Z" fill="#FCFCFC"/>
<path d="M19.7215 12.2953C19.8996 12.3537 20.0812 12.4008 20.2651 12.4363C20.6063 12.4363 20.8088 12.6965 20.7661 13.0109C20.7583 13.0837 20.7347 13.1537 20.6972 13.2162C20.6597 13.2787 20.6091 13.332 20.5491 13.3723C20.4891 13.4127 20.4211 13.4391 20.3499 13.4497C20.2787 13.4603 20.2061 13.4549 20.1372 13.4338C19.8068 13.3687 19.4762 13.2711 19.1458 13.1844C18.8793 13.3795 18.5809 13.6072 18.2824 13.8132C18.2275 13.86 18.1634 13.8943 18.0945 13.9138C18.0255 13.9333 17.9532 13.9375 17.8825 13.9262C17.8118 13.9149 17.7443 13.8883 17.6846 13.8483C17.6248 13.8082 17.5742 13.7556 17.5361 13.694C17.5003 13.6339 17.4767 13.567 17.467 13.4974C17.4573 13.4278 17.4616 13.3569 17.4795 13.2891C17.4974 13.2212 17.5286 13.1577 17.5714 13.1024C17.6141 13.0471 17.6674 13.0013 17.728 12.9675C18.0186 12.7499 18.293 12.5107 18.5489 12.2519C18.6476 12.2013 18.7304 12.1238 18.7883 12.0281C18.8463 11.9324 18.8769 11.8222 18.8769 11.7098C18.8769 11.5974 18.8463 11.4872 18.7883 11.3915C18.7304 11.2958 18.6476 11.2183 18.5489 11.1677C18.3445 10.9869 18.1232 10.8272 17.888 10.6906C17.8253 10.6605 17.7691 10.618 17.7227 10.5655C17.6763 10.513 17.6406 10.4517 17.6178 10.3851C17.595 10.3185 17.5854 10.2479 17.5897 10.1775C17.594 10.1071 17.612 10.0383 17.6427 9.97504C17.6763 9.91083 17.7231 9.85468 17.7798 9.81039C17.8366 9.76609 17.9021 9.73467 17.9718 9.71824C18.0415 9.7018 18.1137 9.70076 18.1839 9.71513C18.254 9.7295 18.3203 9.75895 18.3783 9.80155C18.7179 10.0154 19.0389 10.2585 19.3377 10.528C19.5551 10.7264 19.7118 10.9841 19.7893 11.2705C19.8667 11.5569 19.8616 11.8599 19.7747 12.1435C19.7384 12.1853 19.7194 12.2396 19.7215 12.2953Z" fill="#FCFCFC"/>
<path d="M22.7487 6.88494C22.6101 7.10359 22.4373 7.2977 22.2371 7.45959C21.949 7.70162 21.6034 7.86242 21.235 7.92583C20.9135 7.98928 20.5827 7.98418 20.2633 7.91088C19.9439 7.83757 19.6429 7.69762 19.3793 7.49992C19.1158 7.30222 18.8955 7.05107 18.7323 6.76232C18.5692 6.47356 18.4667 6.15352 18.4314 5.82241C18.408 5.40827 18.4736 4.99393 18.6233 4.60807C18.6233 4.46712 18.7299 4.3153 18.7939 4.17435C18.8251 4.09641 18.8606 4.0204 18.9005 3.94667C19.4194 2.82629 20.0366 1.75577 20.7446 0.748157L20.8193 0.683105C21.299 1.49628 21.7894 2.28779 22.2478 3.10097C22.5961 3.69828 22.8649 4.33998 23.0473 5.00923C23.1278 5.32588 23.1429 5.65608 23.0915 5.97895C23.0401 6.30182 22.9234 6.61031 22.7487 6.88494Z" fill="#FCFCFC"/>
<path d="M17.9941 4.34788C17.9027 4.50927 17.7791 4.64958 17.6316 4.75989C17.4297 4.93016 17.1869 5.04244 16.9281 5.08515C16.7029 5.13008 16.471 5.12684 16.2471 5.07559C16.0233 5.02434 15.8124 4.92624 15.6279 4.78752C15.4433 4.6488 15.2892 4.47248 15.1754 4.26986C15.0615 4.06723 14.9904 3.84272 14.9665 3.61061C14.9558 3.52784 14.9558 3.44399 14.9665 3.36122C14.9824 3.15393 15.0254 2.94973 15.0945 2.75405L15.2225 2.45046L15.2864 2.28784C15.361 2.1252 15.4356 1.97341 15.5209 1.82162C15.8392 1.20675 16.1952 0.612848 16.5869 0.043457H16.6403C16.9814 0.618103 17.3224 1.12769 17.6422 1.73486C17.8846 2.1575 18.0744 2.60913 18.2073 3.07934C18.2584 3.29442 18.2659 3.51785 18.2292 3.73598C18.1926 3.9541 18.1126 4.16231 17.9941 4.34788Z" fill="#FCFCFC"/>
</g>
<defs>
<clipPath id="clip0_107_364">
<rect width="26" height="26" fill="white"/>
</clipPath>
</defs>
</svg>
