<svg width="24" height="25" viewBox="0 0 24 25" fill="none" xmlns="http://www.w3.org/2000/svg">
<g clip-path="url(#clip0_107_381)">
<path d="M23.9905 23.9739C23.9963 24.1071 23.9757 24.2401 23.93 24.3646C23.8843 24.4891 23.8144 24.6024 23.7247 24.6975C23.635 24.7925 23.5275 24.8672 23.4088 24.9168C23.2902 24.9665 23.163 24.9901 23.0352 24.9861C22.8633 24.9961 22.6951 24.9961 22.5308 24.9961H9.06736H1.25905C0.389764 24.9961 0.0153055 24.6135 0.00957392 23.7189C-0.00188922 22.2145 -0.00188922 20.6145 0.00957392 18.8293C-0.00107183 18.6361 0.0274485 18.4427 0.0932876 18.2617C0.159127 18.0808 0.260805 17.9164 0.391679 17.7792C0.484801 17.6916 0.595016 17.6261 0.714744 17.5873C0.834472 17.5484 0.960867 17.5371 1.0852 17.554C1.7023 17.6238 2.01371 18.0522 2.00989 18.8273C2.00989 19.2756 2.00989 19.7239 2.00989 20.1722C2.00989 20.9951 2.00988 21.8459 1.9946 22.6867C1.98824 22.7676 1.99404 22.8489 2.0118 22.9278C2.09009 22.9505 2.17146 22.9592 2.25253 22.9537C6.91803 22.9378 11.6619 22.9398 16.249 22.9398H19.9363H20.4942C20.9298 22.9398 21.3826 22.9278 21.8316 22.9557C21.9012 22.9667 21.9721 22.9667 22.0417 22.9557C22.0561 22.8851 22.0606 22.8126 22.0551 22.7405C22.0188 21.3797 22.0226 20.0367 22.0551 18.7555C22.0748 18.5406 22.1387 18.3327 22.2426 18.1459C22.3465 17.9592 22.4878 17.7981 22.6569 17.6736C22.7755 17.5941 22.9129 17.5503 23.0538 17.5472C23.1947 17.544 23.3338 17.5815 23.4555 17.6557C23.6143 17.7473 23.7471 17.8811 23.8403 18.0434C23.9336 18.2058 23.9841 18.3909 23.9866 18.5802C24.0077 20.4253 24 22.3321 23.9905 23.9739Z" fill="white"/>
<path d="M5.4536 11.186C5.5318 11.0755 5.63106 10.9831 5.74515 10.9145C5.85923 10.8459 5.98567 10.8027 6.11655 10.7875C6.27316 10.7844 6.42873 10.8148 6.57364 10.8768C6.71855 10.9388 6.84973 11.0312 6.95909 11.1481C8.31174 12.4061 9.66631 13.6627 11.0228 14.918L11.0228 1.36891C11.0228 1.28655 11.0228 1.20485 11.0228 1.12382C11.0476 0.430429 11.4049 0.00801974 11.9971 -0.00592674L12.0239 -0.00592673C12.597 -0.00592668 12.9791 0.412504 13.0097 1.09394C13.0097 1.27725 13.0097 1.46255 13.0097 1.64586L13.0097 14.914L13.2199 14.7147L14.8591 13.2084L15.3348 12.768C15.908 12.24 16.5022 11.6941 17.0791 11.1521C17.1867 11.0343 17.3168 10.9412 17.4608 10.8787C17.6049 10.8163 17.7599 10.7859 17.9159 10.7895C18.0473 10.8018 18.1746 10.8428 18.2898 10.9097C18.405 10.9766 18.5055 11.0681 18.5846 11.178C18.9667 11.6522 18.8884 12.2301 18.3936 12.6864L12.811 17.9027C12.3047 18.373 11.743 18.367 11.231 17.8888C9.63573 16.4004 8.00797 14.9 6.4337 13.4355L5.6351 12.6983C5.14792 12.24 5.07723 11.6622 5.4536 11.186Z" fill="white"/>
</g>
<defs>
<clipPath id="clip0_107_381">
<rect width="24" height="25" fill="white"/>
</clipPath>
</defs>
</svg>
