<svg width="19" height="19" viewBox="0 0 19 19" fill="none" xmlns="http://www.w3.org/2000/svg">
<g clip-path="url(#clip0_171_2202)">
<path d="M17.0104 0.00683594C19.0079 0.00683594 19.0394 0.0068493 18.9764 1.44126C18.9333 3.53705 18.4276 5.59767 17.4952 7.47665C16.5628 9.35563 15.2265 11.0068 13.5815 12.313C13.3665 12.4743 13.2184 12.7085 13.1649 12.9713C12.9604 16.2242 11.1123 18.2936 7.84075 18.8814C7.56689 18.9584 7.28376 18.9979 6.99923 18.999C6.87992 18.9907 6.7634 18.9587 6.6567 18.9048C6.55 18.851 6.45526 18.7764 6.37792 18.6855C6.30714 18.5757 6.4802 18.2465 6.62176 18.0898C6.99138 17.6587 7.40817 17.3059 7.78565 16.8513C8.50916 15.8715 8.4305 15.2053 7.5733 14.3509L4.48271 11.2156C4.27013 10.9247 3.95082 10.7293 3.59433 10.672C3.23785 10.6147 2.87294 10.7002 2.57943 10.9099C2.01119 11.328 1.46532 11.7754 0.943801 12.2502C0.725389 12.387 0.49002 12.4951 0.243776 12.5716C0.118237 12.3456 0.0355446 12.0985 -6.10352e-05 11.8426C0.212273 8.70731 2.06055 6.46558 4.89954 5.88555H4.95445C6.11836 6.03448 6.73188 5.28985 7.4318 4.5217C8.64396 3.16849 10.1164 2.07159 11.7617 1.29606C13.4071 0.520522 15.1919 0.08212 17.0104 0.00683594ZM16.9317 6.37152C16.8294 6.25394 16.7194 6.11286 16.5936 5.98745C15.4061 4.79603 14.2343 3.63596 13.0389 2.40535C12.9324 2.26449 12.7748 2.17085 12.5998 2.14447C12.4249 2.1181 12.2466 2.16109 12.1031 2.26427C8.85778 3.85342 6.35718 6.63511 5.12744 10.0242C5.10008 10.1198 5.09512 10.2203 5.11285 10.3182C5.13057 10.416 5.1706 10.5085 5.22977 10.5885C6.27572 11.6702 7.33739 12.7284 8.37547 13.7787C8.44703 13.8339 8.53008 13.8724 8.61854 13.8914C8.707 13.9104 8.79855 13.9094 8.88657 13.8885C12.3472 12.6343 15.1727 10.0716 16.7508 6.75559L16.9317 6.37152ZM18.127 0.986621C16.6485 0.927373 15.1716 1.13993 13.7702 1.61367L17.4587 5.2428L18.127 0.986621ZM9.16976 14.8839C9.26263 15.3741 9.24674 15.8787 9.12311 16.3621C8.99948 16.8455 8.77097 17.2961 8.454 17.6822C10.5223 17.2824 12.2525 15.2053 12.0952 13.4181L9.16976 14.8839ZM1.25829 10.6121C1.63792 10.2681 2.09334 10.0179 2.58788 9.88172C3.08242 9.74555 3.60229 9.72724 4.10524 9.82823C4.3569 9.30306 4.57703 8.80922 4.82082 8.32324C5.06461 7.83727 5.32413 7.36699 5.60724 6.87318C4.56561 6.91652 3.56931 7.30943 2.77988 7.98812C1.99045 8.66681 1.45419 9.59147 1.25829 10.6121Z" fill="white"/>
<path d="M1.32118 18.2548C1.23372 18.2625 1.14574 18.2472 1.06601 18.2106C0.986291 18.1739 0.917601 18.1171 0.866719 18.0457C0.815838 17.9744 0.784475 17.8911 0.775904 17.804C0.767333 17.7169 0.781751 17.6291 0.81776 17.5493C0.883051 17.4472 0.962516 17.3549 1.05373 17.275L4.48262 13.834C4.72641 13.591 4.98578 13.3637 5.30821 13.685C5.63064 14.0064 5.4105 14.2651 5.16671 14.5159L1.73013 17.9491C1.60363 18.0634 1.46671 18.1657 1.32118 18.2548Z" fill="white"/>
<path d="M3.96359 12.3995C3.86301 12.5652 3.75278 12.7248 3.63335 12.8776C3.08286 13.4341 2.52441 13.9828 1.97391 14.5472C1.73012 14.7902 1.41555 14.9156 1.18749 14.6099C1.14494 14.4921 1.13133 14.3659 1.14775 14.2418C1.16417 14.1177 1.21022 13.9994 1.28195 13.8966C1.81608 13.2937 2.38309 12.7207 2.98056 12.18C3.14626 12.0524 3.35375 11.9909 3.56251 12.0076C3.70406 12.0311 3.81417 12.2427 3.96359 12.3995Z" fill="white"/>
<path d="M4.62412 17.9815C4.51402 17.8952 4.31747 17.8169 4.29388 17.6993C4.26772 17.6075 4.26113 17.5112 4.27468 17.4167C4.28823 17.3221 4.32149 17.2315 4.37241 17.1506C4.97009 16.5 5.59147 15.8652 6.25207 15.2695C6.34532 15.2158 6.45101 15.1875 6.55869 15.1875C6.66636 15.1875 6.77225 15.2158 6.8655 15.2695C6.91934 15.3624 6.94768 15.4678 6.94768 15.5751C6.94768 15.6824 6.91934 15.7879 6.8655 15.8808C6.25995 16.5471 5.60708 17.182 4.95435 17.8169C4.85258 17.887 4.74144 17.9424 4.62412 17.9815Z" fill="white"/>
<path d="M14.3287 7.11651C14.3227 7.77242 14.0608 8.40023 13.5984 8.86696C13.1359 9.3337 12.5093 9.60269 11.8514 9.61692C11.1948 9.60274 10.5695 9.33484 10.1073 8.86979C9.64506 8.40473 9.38221 7.7789 9.37421 7.12435C9.38791 6.47918 9.64891 5.86373 10.1038 5.40451C10.5587 4.9453 11.1728 4.67717 11.8199 4.65527C12.4766 4.66117 13.1055 4.92119 13.5736 5.3804C14.0417 5.83961 14.3124 6.4621 14.3287 7.11651ZM11.8907 5.6429C11.494 5.66055 11.1187 5.82711 10.8401 6.10916C10.5615 6.39122 10.4002 6.76789 10.3887 7.16353C10.3928 7.55028 10.5492 7.91989 10.8244 8.19264C11.0995 8.4654 11.4712 8.61941 11.8592 8.62144C12.2576 8.62144 12.6397 8.46374 12.9214 8.18298C13.2031 7.90222 13.3614 7.52141 13.3614 7.12435C13.3517 6.7372 13.1939 6.36834 12.9206 6.09304C12.6473 5.81775 12.279 5.65676 11.8907 5.6429Z" fill="white"/>
</g>
<defs>
<clipPath id="clip0_171_2202">
<rect width="19" height="19" fill="white"/>
</clipPath>
</defs>
</svg>
