<svg width="24" height="20" viewBox="0 0 24 20" fill="none" xmlns="http://www.w3.org/2000/svg">
<g clip-path="url(#clip0_171_1958)">
<path d="M23.9056 3.16654C23.7415 3.2636 23.6297 3.33348 23.5142 3.39949C20.0881 5.26849 16.6582 7.12663 13.2408 9.0166C12.8255 9.24567 12.4632 9.24955 12.0384 9.11366C9.41599 8.28127 6.79281 7.45043 4.16091 6.65375C3.46827 6.4441 2.74295 6.36179 2.03288 6.21426C1.69019 6.14282 1.50578 6.31986 1.42229 6.64598C1.36785 6.84317 1.33471 7.04639 1.32354 7.25165C1.30612 7.78354 1.40195 7.93107 1.88187 8.0918C5.32136 9.24256 8.76134 10.3874 12.2018 11.5262C12.3681 11.5806 12.6055 11.5208 12.771 11.4307C16.1108 9.61268 19.4506 7.78794 22.7904 5.95646L22.9196 5.88658C23.3807 5.63888 23.7357 5.71187 23.9208 6.0908C24.106 6.46972 23.9622 6.83467 23.5084 7.08315C21.6415 8.10811 19.7744 9.13126 17.907 10.1526C16.2328 11.0696 14.5614 11.9913 12.8785 12.8905C12.6787 12.9888 12.4532 13.0102 12.2403 12.9511C8.84048 11.8355 5.44479 10.7083 2.05321 9.56946C1.73593 9.46231 1.5566 9.54461 1.46585 9.84279C1.36671 10.1308 1.3087 10.4331 1.29377 10.7396C1.28942 11.27 1.42664 11.4385 1.90437 11.6015C5.34339 12.7507 8.78482 13.894 12.2287 15.0313C12.3848 15.0825 12.6069 15.0227 12.7616 14.9389C16.1144 13.1141 19.4639 11.2832 22.81 9.446C22.9148 9.38209 23.0232 9.32505 23.1345 9.27517C23.282 9.21265 23.4462 9.21244 23.5938 9.27458C23.7415 9.33673 23.8615 9.45658 23.9295 9.60984C23.9983 9.75583 24.0141 9.92389 23.9739 10.0816C23.9337 10.2393 23.8403 10.3755 23.7117 10.464C23.6203 10.5267 23.5249 10.5827 23.4264 10.6317C19.9167 12.5527 16.4075 14.4753 12.8988 16.3995C12.796 16.4615 12.6819 16.4992 12.5643 16.5099C12.4466 16.5206 12.3282 16.5041 12.2171 16.4616C8.82354 15.3263 5.42567 14.2098 2.03361 13.0668C1.73013 12.965 1.55007 13.0458 1.47166 13.33C1.37678 13.6577 1.3202 13.9968 1.30321 14.3394C1.28942 14.7277 1.48327 14.9676 1.85355 15.0895C5.31967 16.2341 8.78143 17.3949 12.249 18.5356C12.3942 18.5829 12.6026 18.5224 12.7485 18.4432C16.0791 16.6314 19.407 14.812 22.7323 12.9852C22.8608 12.9153 22.9886 12.8393 23.1222 12.7833C23.2672 12.7164 23.4307 12.7113 23.5792 12.769C23.7276 12.8268 23.8499 12.943 23.9208 13.0939C23.9947 13.2441 24.0121 13.4188 23.9695 13.5822C23.9268 13.7456 23.8273 13.8854 23.6914 13.9729C23.6094 14.0273 23.5246 14.0765 23.4373 14.1205C19.9165 16.0487 16.3952 17.9736 12.8734 19.8952C12.6982 19.9912 12.4971 20.0187 12.3049 19.9728C8.76812 18.8102 5.23472 17.6354 1.70471 16.4484C0.276589 15.9677 -0.265035 14.9001 0.113958 13.3424C0.197453 13 0.480606 12.6847 0.48351 12.3547C0.48351 12.0441 0.193095 11.7444 0.112505 11.4175C0.00900058 11.025 -0.0182402 10.6139 0.0324559 10.2097C0.083152 9.80542 0.210711 9.41658 0.407277 9.06708C0.508197 8.88072 0.499487 8.76968 0.392033 8.59186C-0.401529 7.27183 0.167686 5.35003 1.52175 4.76223C5.14034 3.19061 8.76037 1.62314 12.3819 0.0598157C12.5335 -0.00710402 12.7006 -0.0233491 12.8611 0.0132236C16.4637 1.02421 20.0643 2.04245 23.6631 3.06793C23.7248 3.092 23.78 3.1184 23.9056 3.16654ZM10.0687 6.86883L10.0629 6.96201C10.8419 7.2035 11.6202 7.44732 12.4 7.68415C12.4697 7.70361 12.5434 7.69816 12.6098 7.66862C13.0099 7.47217 13.4085 7.2664 13.8775 7.02491C13.028 6.76867 12.2672 6.5365 11.5041 6.31365C11.4226 6.29217 11.337 6.29786 11.2587 6.32996C10.8594 6.50311 10.4651 6.68791 10.0687 6.86883Z" fill="white"/>
</g>
<defs>
<clipPath id="clip0_171_1958">
<rect width="24" height="20" fill="white"/>
</clipPath>
</defs>
</svg>
