<svg width="22" height="20" viewBox="0 0 22 20" fill="none" xmlns="http://www.w3.org/2000/svg">
<g clip-path="url(#clip0_171_1949)">
<path d="M0 2.99605C0.618657 2.99605 1.19623 2.98077 1.77151 2.99605C4.55919 3.11323 7.30986 3.65197 9.92134 4.59228C9.99025 4.60153 10.0527 4.63614 10.0953 4.68875C10.138 4.74136 10.1574 4.80783 10.1496 4.87398C10.1496 8.32996 10.1496 11.7859 10.1496 15.2419C10.1496 15.3031 10.1496 15.3642 10.1359 15.4603C7.29734 14.3474 4.2373 13.8464 1.17337 13.9929C0.771585 10.3375 0.388088 6.69296 0 2.99605Z" fill="white"/>
<path d="M10.9829 15.4947V4.67472L12.8092 4.07422C12.9051 4.42797 12.9713 4.75334 13.0809 5.0656C13.4228 6.03957 14.1185 6.86394 15.0418 7.389C15.4984 7.65541 15.955 7.90652 16.3933 8.1773C17.1684 8.65822 17.7439 9.38252 18.021 10.2256C18.0369 10.278 18.0483 10.3325 18.0666 10.4046C17.7927 10.4614 17.5279 10.5138 17.2654 10.5706C15.9847 10.8413 15.4025 11.6995 15.1879 12.8525C15.1058 13.2892 15.0647 13.7259 15.0121 14.1626C15.0126 14.2163 14.9923 14.2682 14.9552 14.3085C14.9182 14.3488 14.867 14.3746 14.8113 14.381C13.5621 14.6199 12.3391 14.9709 11.1587 15.4292C11.1085 15.4532 11.0742 15.4685 10.9829 15.4947Z" fill="white"/>
<path d="M22 16.4671C21.9778 16.8947 21.9228 17.3202 21.8356 17.7401C21.4475 19.1377 19.8404 20.164 18.4113 19.974C16.7128 19.7557 15.4847 18.4673 15.4915 16.9016C15.5108 15.4903 15.6574 14.0831 15.9298 12.6959C16.0896 11.8421 16.6375 11.3595 17.5278 11.1674C18.247 10.9933 18.9982 10.9791 19.7239 11.1259C20.8928 11.3705 21.411 11.8421 21.5777 12.982C21.7443 14.1219 21.8516 15.2617 22 16.4671ZM18.0209 13.6917H17.9958C17.9958 13.9974 17.9958 14.3053 17.9958 14.611C17.9965 14.7196 18.035 14.8249 18.1054 14.9101C18.3474 15.1525 18.6533 15.1285 18.9569 15.0499C19.0821 15.0306 19.1962 14.97 19.2796 14.8787C19.3629 14.7874 19.4103 14.671 19.4135 14.5498C19.4135 13.9362 19.4317 13.3226 19.4021 12.709C19.3861 12.3466 19.1098 12.1609 18.6989 12.1697C18.6136 12.1609 18.5274 12.1691 18.4456 12.1939C18.3638 12.2188 18.2883 12.2596 18.2239 12.3138C18.1595 12.368 18.1076 12.4344 18.0715 12.5089C18.0354 12.5833 18.0158 12.6641 18.0141 12.7461C18.0072 13.0628 18.0209 13.3794 18.0209 13.6939V13.6917Z" fill="white"/>
<path d="M20.3198 10.5837C19.9546 10.5226 19.6053 10.4723 19.2629 10.4003C19.2241 10.3871 19.189 10.3658 19.1601 10.3378C19.1312 10.3098 19.1094 10.2759 19.0962 10.2387C18.9288 9.6007 18.6291 9.00139 18.215 8.47625C17.8009 7.95111 17.2808 7.51084 16.6855 7.18158C16.2472 6.93046 15.8043 6.68807 15.382 6.41512C14.4689 5.81898 14.0122 4.95862 13.8502 3.92794C13.8467 3.896 13.8467 3.86382 13.8502 3.83187C13.8481 3.81738 13.8481 3.80267 13.8502 3.78818C15.108 3.28376 19.5802 2.79245 21.112 2.99989C20.8517 5.53292 20.5877 8.06087 20.3198 10.5837Z" fill="white"/>
<path d="M18.7081 0C18.667 0.738072 18.6305 1.39754 18.594 2.07883C15.9976 2.25897 13.4408 2.78826 10.9989 3.65107C10.949 3.51497 10.9504 3.36644 11.0029 3.23125C11.0555 3.09605 11.1558 2.9827 11.2865 2.91082C12.985 1.80152 14.7725 0.871288 16.7654 0.36905C17.3909 0.214011 18.0278 0.128835 18.7081 0Z" fill="white"/>
<path d="M2.51341 2.06584L2.40155 0.0546875C3.2247 0.103912 4.03831 0.250608 4.8237 0.491416C6.67663 1.06323 8.42104 1.91709 9.9898 3.02009C10.1565 3.13146 10.1542 3.13581 10.1199 3.6315C7.67144 2.77859 5.11195 2.25178 2.51341 2.06584Z" fill="white"/>
</g>
<defs>
<clipPath id="clip0_171_1949">
<rect width="22" height="20" fill="white"/>
</clipPath>
</defs>
</svg>
