<svg width="21" height="21" viewBox="0 0 21 21" fill="none" xmlns="http://www.w3.org/2000/svg">
<path d="M19.3653 19.3499L14.3038 14.5226M16.5533 9.15899C16.5533 10.1451 16.3497 11.1216 15.954 12.0326C15.5584 12.9436 14.9784 13.7714 14.2473 14.4687C13.5162 15.166 12.6482 15.7191 11.693 16.0965C10.7378 16.4739 9.71394 16.6681 8.68 16.6681C7.64605 16.6681 6.62223 16.4739 5.66699 16.0965C4.71175 15.7191 3.8438 15.166 3.11269 14.4687C2.38158 13.7714 1.80164 12.9436 1.40596 12.0326C1.01029 11.1216 0.806641 10.1451 0.806641 9.15899C0.806641 7.16746 1.63615 5.25749 3.11269 3.84926C4.58923 2.44104 6.59185 1.6499 8.68 1.6499C10.7681 1.6499 12.7708 2.44104 14.2473 3.84926C15.7238 5.25749 16.5533 7.16746 16.5533 9.15899Z" stroke="#081F2C" stroke-width="1.5" stroke-linecap="round" stroke-linejoin="round"/>
</svg>
