<svg width="21" height="26" viewBox="0 0 21 26" fill="none" xmlns="http://www.w3.org/2000/svg">
<path d="M16.8332 7.90909C18.5821 7.90909 19.9998 6.3625 19.9998 4.45461C19.9998 2.54672 18.5821 1 16.8332 1C15.0843 1 13.6665 2.54672 13.6665 4.45461C13.6665 6.3625 15.0843 7.90909 16.8332 7.90909Z" stroke="white" stroke-width="2" stroke-linecap="round" stroke-linejoin="round"/>
<path d="M4.45461 15.9696C6.36248 15.9696 7.90909 14.423 7.90909 12.5152C7.90909 10.6073 6.36248 9.06055 4.45461 9.06055C2.54674 9.06055 1 10.6073 1 12.5152C1 14.423 2.54674 15.9696 4.45461 15.9696Z" stroke="white" stroke-width="2" stroke-linecap="round" stroke-linejoin="round"/>
<path d="M16.8332 24.0302C18.5821 24.0302 19.9998 22.4836 19.9998 20.5757C19.9998 18.6678 18.5821 17.1211 16.8332 17.1211C15.0843 17.1211 13.6665 18.6678 13.6665 20.5757C13.6665 22.4836 15.0843 24.0302 16.8332 24.0302Z" stroke="white" stroke-width="2" stroke-linecap="round" stroke-linejoin="round"/>
<path d="M7.3335 14.2422L13.6668 18.8482" stroke="white" stroke-width="2" stroke-linecap="round" stroke-linejoin="round"/>
<path d="M13.6668 6.18164L7.3335 10.7877" stroke="white" stroke-width="2" stroke-linecap="round" stroke-linejoin="round"/>
</svg>
