<svg width="31" height="33" viewBox="0 0 31 33" fill="none" xmlns="http://www.w3.org/2000/svg">
<path d="M13.6654 9.70389C12.8056 8.93589 12.3896 8.00823 12.4929 6.87993C12.5262 6.46272 12.6432 6.05682 12.8366 5.68709C13.03 5.31736 13.2958 4.99159 13.6177 4.72976C14.229 4.21264 15.0129 3.95379 15.8071 4.00679C16.6013 4.05979 17.345 4.42059 17.8843 5.0145C18.5406 5.73299 18.8202 6.58827 18.7043 7.55798C18.5894 8.51597 18.0926 9.2515 17.2763 9.81884C17.5302 9.85823 17.7353 9.87526 17.9341 9.92263C19.4256 10.2744 20.361 11.6683 20.149 13.2165C20.1181 13.4427 20.139 13.6918 19.9198 13.8456C19.8616 13.8951 19.7922 13.9289 19.7178 13.9441C18.5841 14.0191 17.4499 14.0878 16.3157 14.157C16.2307 14.1623 16.1463 14.1708 16.077 14.1767C16.1541 14.4678 16.2554 14.7413 16.2926 15.024C16.3299 15.3066 16.3005 15.587 16.3005 15.8893C16.3844 15.8947 16.4579 15.9026 16.5361 15.9048C17.9955 15.9415 19.455 15.9814 20.9144 16.0112C21.1925 16.0171 21.375 16.1331 21.4946 16.3838C21.8398 17.1001 22.185 17.816 22.5438 18.5249C22.5718 18.5741 22.6096 18.6169 22.6548 18.6505C22.6999 18.6842 22.7515 18.7079 22.8061 18.7202C23.43 18.8021 24.0156 19.0712 24.4877 19.4929C24.9599 19.9147 25.297 20.47 25.4559 21.0875C25.7707 22.3175 25.3101 23.5991 24.2703 24.3783C24.2236 24.4134 24.1801 24.4522 24.1129 24.5097C24.3647 24.5534 24.5851 24.5768 24.8012 24.6311C25.4836 24.7998 26.0817 25.2156 26.4831 25.8004C26.8845 26.3851 27.0616 27.0984 26.981 27.8063C26.9684 27.9207 26.9579 28.0357 26.94 28.1496C26.8902 28.4598 26.7454 28.6009 26.4375 28.619C24.8054 28.7121 23.1734 28.8132 21.5408 28.8888C20.4916 28.9378 19.4424 28.9484 18.3932 28.9745C17.8533 28.9883 17.611 28.7616 17.6278 28.2124C17.6425 27.7179 17.6173 27.2011 17.7442 26.7355C18.0968 25.4368 18.9692 24.6694 20.2796 24.424C20.3284 24.415 20.3767 24.4022 20.4648 24.382C19.4959 23.4969 19.0904 22.4277 19.3705 21.1626C19.6506 19.8975 20.4722 19.1077 21.7312 18.7351C21.5329 18.4456 21.3047 18.1933 21.1688 17.8979C20.8814 17.2715 20.4407 17.1406 19.7781 17.1731C16.7821 17.3189 13.7829 17.2854 10.7853 17.1731C10.7045 17.1699 10.5881 17.2098 10.5451 17.271C10.2046 17.7532 9.87828 18.2455 9.53467 18.7548C10.8053 19.1481 11.6457 19.9763 11.8749 21.3095C12.1042 22.6427 11.5932 23.6986 10.49 24.5172C10.7276 24.5544 10.9222 24.573 11.1106 24.6172C12.6283 24.9733 13.5789 26.4087 13.337 27.9808C13.3066 28.1788 13.337 28.4103 13.1093 28.529C13.0474 28.5615 12.9881 28.6238 12.9257 28.6264C10.1925 28.7542 7.4595 28.8783 4.72665 28.999C4.34946 29.0155 4.08821 28.8308 4.04729 28.4753C3.92611 27.4194 4.00008 26.3996 4.72089 25.5369C5.20902 24.9347 5.90126 24.5391 6.66193 24.4277C6.70474 24.4206 6.74712 24.411 6.78888 24.399C6.79518 24.399 6.79832 24.3852 6.82928 24.333C6.74924 24.2761 6.67316 24.2137 6.6016 24.1462C5.70137 23.1882 5.42596 22.0594 5.85351 20.8108C6.28106 19.5622 7.18601 18.8794 8.46552 18.6819C8.51978 18.6701 8.57106 18.6471 8.61618 18.6143C8.6613 18.5815 8.6993 18.5397 8.72782 18.4914C9.07826 17.7995 9.41716 17.0985 9.75185 16.3971C9.87461 16.1406 10.0514 16.0096 10.3436 16.0022C11.7941 15.967 13.2447 15.9191 14.6947 15.8755C14.7807 15.8755 14.8657 15.8681 14.9659 15.8633C14.8961 15.2853 14.9197 14.736 15.1758 14.2368C14.744 14.2368 14.3259 14.2299 13.9078 14.2368C13.1036 14.2528 12.2999 14.2831 11.4946 14.2969C11.0676 14.3044 10.8126 14.0601 10.8194 13.629C10.8304 13.1085 10.8121 12.5725 10.9243 12.0707C11.2024 10.8269 12.2574 9.90719 13.4986 9.73688C13.5395 9.7273 13.5794 9.71879 13.6654 9.70389ZM26.4228 28.1512C26.3756 27.9862 26.2885 27.7962 26.2701 27.5992C26.1489 26.3102 25.1412 25.5694 24.1192 25.604C23.6439 25.6199 23.2379 25.299 23.0768 24.853C22.9973 24.6351 22.9849 24.3979 23.0411 24.1727C23.0973 23.9475 23.2195 23.7449 23.3916 23.5916C23.5081 23.4852 23.634 23.3873 23.7462 23.2755C24.0205 23.0054 24.2062 22.6562 24.2779 22.2752C24.3496 21.8943 24.3039 21.5002 24.147 21.1466C23.8071 20.4015 23.1141 19.9922 22.3046 20.0556C21.5786 20.112 20.9454 20.6516 20.7402 21.3861C20.5351 22.1206 20.7864 22.8811 21.4222 23.3638C21.7533 23.6161 21.9872 23.9195 22.024 24.3463C22.0927 25.1399 21.5335 25.7562 20.745 25.7647C19.6596 25.7769 18.7934 26.7152 18.944 27.7483C21.439 27.8238 23.9472 27.9383 26.4228 28.1512ZM19.6029 13.4358C19.5641 13.3028 19.4791 13.1074 19.4534 12.9036C19.296 11.6795 18.5369 10.9775 17.3219 10.911C17.0632 10.8935 16.8149 10.8011 16.6064 10.6449C16.0094 10.1749 16.0529 9.29833 16.6767 8.8188C17.1719 8.43774 17.4725 7.95022 17.5029 7.31688C17.5181 6.88791 17.388 6.46661 17.1341 6.12319C16.8803 5.77978 16.5181 5.53499 16.108 5.42963C15.7051 5.32837 15.2802 5.37042 14.9042 5.54875C14.5282 5.72708 14.2239 6.03089 14.0421 6.40945C13.6575 7.21256 13.8821 8.13118 14.5992 8.69001C15.1406 9.11259 15.3337 9.62991 15.1548 10.1941C14.9727 10.7736 14.5352 11.0712 13.8249 11.0988C13.4376 11.1134 13.0655 11.2552 12.7646 11.503C12.4637 11.7507 12.2503 12.091 12.1566 12.4725C12.11 12.6625 12.1073 12.8637 12.0869 13.0414L19.6029 13.4358ZM12.761 28.1086C12.7248 27.9787 12.6403 27.7813 12.6183 27.5764C12.4772 26.2533 11.4432 25.564 10.448 25.5981C9.86674 25.6178 9.39407 25.1063 9.36417 24.5177C9.33899 24.0206 9.59237 23.6975 9.96012 23.4069C10.1661 23.2447 10.336 23.0402 10.4588 22.8068C10.5816 22.5734 10.6545 22.3164 10.6728 22.0525C10.6911 21.7886 10.6544 21.5238 10.565 21.2753C10.4757 21.0267 10.3357 20.8001 10.1542 20.6101C9.98241 20.4266 9.77483 20.2813 9.54469 20.1834C9.31454 20.0856 9.06686 20.0374 8.81737 20.0419C8.56789 20.0464 8.32205 20.1035 8.09548 20.2096C7.86892 20.3157 7.66657 20.4684 7.5013 20.658C6.78573 21.4777 6.93157 22.7028 7.82655 23.3926C7.85435 23.4144 7.88321 23.4341 7.91049 23.4564C8.35273 23.8178 8.51536 24.3846 8.33017 24.9121C8.14499 25.4395 7.69068 25.7546 7.12358 25.7636C6.97532 25.7649 6.82755 25.7809 6.68239 25.8115C5.81626 26.0036 5.15473 26.934 5.31002 27.7131L12.761 28.1086Z" fill="white"/>
</svg>
