<svg width="26" height="26" viewBox="0 0 26 26" fill="none" xmlns="http://www.w3.org/2000/svg">
<path d="M19.2341 15.1668C20.5797 15.1668 21.6704 16.2575 21.6704 17.6031V18.598C21.6704 19.2192 21.4762 19.8248 21.115 20.3302C19.4403 22.6737 16.7057 23.8347 13.0004 23.8347C9.29437 23.8347 6.56115 22.6732 4.89048 20.3285C4.53085 19.8237 4.33759 19.2194 4.33759 18.5997V17.6031C4.33759 16.2575 5.42834 15.1668 6.77386 15.1668H19.2341ZM13.0004 2.17188C15.992 2.17188 18.4171 4.597 18.4171 7.58854C18.4171 10.5801 15.992 13.0052 13.0004 13.0052C10.0089 13.0052 7.58374 10.5801 7.58374 7.58854C7.58374 4.597 10.0089 2.17188 13.0004 2.17188Z" fill="white"/>
</svg>
